<?xml version="1.0" encoding="utf-8"?>
<!-- Generator: Adobe Illustrator 26.2.1, SVG Export Plug-In . SVG Version: 6.00 Build 0)  -->
<svg version="1.1" id="Layer_1" xmlns="http://www.w3.org/2000/svg" xmlns:xlink="http://www.w3.org/1999/xlink" x="0px" y="0px"
	 viewBox="0 0 32.25 32.25" style="enable-background:new 0 0 32.25 32.25;" xml:space="preserve">
<style type="text/css">
	.st0{fill:#1D1D1B;}
</style>
<g>
	<path class="st0" d="M19.03,6.5c-0.07,0.1-0.13,0.1-0.24,0.08c-0.52-0.11-1.04-0.21-1.56-0.29c-0.1-0.02-0.24,0.01-0.3,0.08
		c-0.07,0.07-0.12,0.23-0.08,0.3c0.04,0.1,0.17,0.2,0.28,0.22c0.5,0.11,1.01,0.19,1.51,0.28c-0.05,0.26-0.11,0.49-0.13,0.72
		c-0.08,0.72,0.12,1.39,0.43,2.02c0.57,1.17,1.36,2.18,2.25,3.12c0.18,0.19,0.39,0.2,0.56-0.01c0.56-0.69,1.11-1.39,1.67-2.09
		c0.08-0.09,0.13-0.2,0.21-0.31c0.63,0.85,1.11,1.76,1.42,2.77c-0.7,0.07-1.39,0.15-2.08,0.22c-0.8,0.08-1.6,0.16-2.39,0.26
		c-0.11,0.01-0.23,0.1-0.3,0.18c-0.48,0.6-0.96,1.2-1.41,1.82c-0.18,0.24-0.35,0.42-0.66,0.4c-0.06,0-0.12,0.02-0.18,0.05
		c-0.37,0.16-0.74,0.33-1.11,0.5c0-0.01-0.02-0.06-0.03-0.11c-0.11-0.68-0.22-1.37-0.34-2.05c-0.05-0.28-0.03-0.59-0.31-0.81
		c-0.75-0.61-1.49-1.24-2.23-1.86c-0.07-0.06-0.17-0.12-0.27-0.13c-0.76-0.1-1.52-0.19-2.28-0.3c-0.07-0.01-0.16-0.08-0.2-0.15
		c-0.18-0.27-0.32-0.57-0.52-0.82c-0.33-0.42-0.78-0.69-1.35-0.9c0.52-0.42,0.98-0.83,1.48-1.19c1.43-1.01,3.04-1.52,4.78-1.63
		c0.23-0.02,0.37-0.15,0.36-0.33c-0.01-0.19-0.16-0.32-0.39-0.29c-0.63,0.08-1.27,0.13-1.89,0.29C11.8,6.98,10.17,7.96,8.83,9.4
		c-0.1,0.1-0.19,0.15-0.33,0.14c-0.59-0.02-1.14,0.14-1.62,0.47c-1.02,0.7-1.48,1.67-1.33,2.91c0.07,0.59,0.31,1.12,0.59,1.64
		c0.1,0.18,0.13,0.35,0.1,0.55c-0.12,0.93-0.08,1.86,0.08,2.78c0.43,2.45,1.62,4.48,3.55,6.03c2.4,1.93,5.15,2.6,8.16,2.03
		c2.76-0.52,4.9-2.01,6.46-4.34c0.94-1.41,1.45-2.97,1.58-4.66c0.11-1.46-0.08-2.88-0.59-4.25c-0.34-0.93-0.81-1.78-1.42-2.56
		c-0.09-0.12-0.1-0.21-0.04-0.35c0.1-0.21,0.18-0.43,0.25-0.64c0.49-1.47-0.16-3-1.56-3.66c-0.27-0.13-0.57-0.19-0.86-0.28h-0.78
		c-0.03,0.01-0.06,0.03-0.09,0.04C20.16,5.4,19.51,5.81,19.03,6.5z M17.07,17.6c0.67-0.73,1.51-0.96,2.45-0.65
		c0.94,0.31,1.48,1,1.6,1.99c0.06,0.54-0.08,1.04-0.3,1.52c-0.43,0.96-1.05,1.79-1.74,2.58c-0.09,0.1-0.18,0.21-0.28,0.32
		c-0.88-0.99-1.69-2-2.16-3.24C16.3,19.21,16.39,18.34,17.07,17.6z M6.23,13.14c-0.42-1.51,0.74-3.02,2.28-2.98
		c1.58,0.04,2.66,1.51,2.21,3.05c-0.25,0.88-0.74,1.63-1.28,2.35c-0.3,0.39-0.62,0.77-0.95,1.16C7.54,15.63,6.63,14.54,6.23,13.14z
		 M6.81,15.68c0.08,0.09,0.12,0.15,0.16,0.2c0.4,0.48,0.8,0.96,1.21,1.43c0.22,0.25,0.39,0.25,0.61-0.01
		c0.43-0.5,0.85-1.01,1.27-1.52c0.04-0.05,0.08-0.11,0.14-0.18c0.03,0.07,0.06,0.12,0.09,0.17c0.36,0.81,0.72,1.63,1.09,2.44
		c0.06,0.12,0.16,0.24,0.27,0.31c0.55,0.35,1.11,0.68,1.69,1.02c-0.19,0.59-0.41,1.16-0.56,1.75c-0.13,0.5-0.39,0.86-0.82,1.15
		c-0.52,0.35-1,0.75-1.51,1.15C7.96,21.55,6.74,18.95,6.81,15.68z M12.09,24.58c-0.36-0.2-0.72-0.4-1.11-0.61
		c0.61-0.47,1.19-0.92,1.77-1.35c0.23-0.17,0.38-0.37,0.46-0.64c0.24-0.79,0.51-1.56,0.76-2.34c0.11-0.34,0.08-0.41-0.23-0.6
		c-0.55-0.33-1.1-0.65-1.64-0.99c-0.09-0.05-0.17-0.14-0.21-0.23c-0.41-0.9-0.8-1.8-1.21-2.7c-0.06-0.13-0.05-0.22,0.02-0.34
		c0.31-0.54,0.58-1.11,0.69-1.73c0.05-0.27,0.05-0.54,0.08-0.84c0.13,0.01,0.29,0.02,0.44,0.04c0.53,0.06,1.05,0.13,1.58,0.2
		c0.07,0.01,0.15,0.06,0.21,0.11c0.68,0.57,1.36,1.13,2.03,1.71c0.08,0.06,0.12,0.19,0.14,0.3c0.16,0.88,0.3,1.77,0.44,2.65
		c0.02,0.12,0.02,0.27-0.04,0.36c-0.51,0.85-0.58,1.74-0.26,2.66c0.05,0.15,0.05,0.28,0,0.43c-0.25,0.7-0.49,1.41-0.75,2.11
		c-0.04,0.1-0.12,0.2-0.21,0.25c-0.89,0.52-1.78,1.03-2.67,1.54C12.28,24.63,12.2,24.65,12.09,24.58z M19.55,24.86
		c-2.15,0.84-4.33,0.85-6.55,0.1c0.09-0.06,0.14-0.1,0.2-0.13c0.76-0.44,1.52-0.88,2.28-1.3c0.19-0.1,0.3-0.24,0.36-0.44
		c0.2-0.59,0.41-1.18,0.63-1.81c0.06,0.09,0.09,0.14,0.13,0.2c0.53,0.91,1.19,1.72,1.91,2.49c0.21,0.22,0.37,0.22,0.59,0
		c0.92-0.98,1.74-2.02,2.3-3.25c0.01-0.03,0.03-0.06,0.06-0.11c0.83,0.2,1.67,0.4,2.53,0.6C22.87,22.92,21.4,24.14,19.55,24.86z
		 M25.24,14.12c0.48,2.27,0.2,4.43-0.89,6.48c-0.01,0.01-0.02,0.02-0.04,0.05c-0.87-0.21-1.75-0.42-2.65-0.63
		c0.22-0.86,0.14-1.66-0.32-2.41c-0.46-0.73-1.13-1.18-2-1.37c0.46-0.59,0.9-1.15,1.35-1.7c0.03-0.04,0.1-0.07,0.16-0.08
		c1.21-0.13,2.42-0.25,3.63-0.38c0.2-0.02,0.4-0.06,0.61-0.07C25.13,14.01,25.23,14.07,25.24,14.12z M23.75,8.64
		c-0.1,0.43-0.29,0.85-0.47,1.25c-0.31,0.67-1.27,1.96-1.84,2.5c-0.31-0.37-0.63-0.74-0.92-1.12c-0.55-0.73-1.06-1.5-1.31-2.4
		c-0.38-1.35,0.41-2.67,1.77-2.97C22.61,5.54,24.11,7.02,23.75,8.64z"/>
	<path class="st0" d="M18.81,20.82c0.89-0.01,1.65-0.75,1.64-1.64c-0.01-0.94-0.71-1.63-1.65-1.65c-0.89-0.02-1.65,0.75-1.65,1.65
		C17.16,20.08,17.92,20.84,18.81,20.82z M18.81,18.17c0.56,0,1.01,0.45,1.01,1.01c0,0.56-0.46,1-1.02,1c-0.56,0-1.01-0.45-1-1.01
		C17.8,18.6,18.24,18.16,18.81,18.17z"/>
	<path class="st0" d="M10.12,12.53c0-0.91-0.73-1.67-1.64-1.66c-0.94,0.01-1.64,0.73-1.65,1.64c0,0.9,0.75,1.65,1.65,1.65
		C9.38,14.16,10.12,13.42,10.12,12.53z M8.49,13.52c-0.56,0-1.02-0.44-1.02-1c0-0.55,0.45-1.01,1.01-1.02c0.56,0,1.01,0.44,1.02,1
		C9.5,13.06,9.05,13.52,8.49,13.52z"/>
	<path class="st0" d="M21.46,9.83c0.9,0,1.65-0.74,1.66-1.64c0-0.89-0.76-1.65-1.65-1.65c-0.89,0-1.63,0.74-1.65,1.64
		S20.56,9.83,21.46,9.83z M21.46,7.18c0.56,0,1.01,0.45,1.01,1.01c0,0.56-0.44,1.01-1,1.02c-0.56,0-1.01-0.44-1.01-1
		C20.46,7.63,20.9,7.18,21.46,7.18z"/>
</g>
</svg>
