<?xml version="1.0" encoding="utf-8"?>
<!-- Generator: Adobe Illustrator 26.2.1, SVG Export Plug-In . SVG Version: 6.00 Build 0)  -->
<svg version="1.1" id="Layer_1" xmlns="http://www.w3.org/2000/svg" xmlns:xlink="http://www.w3.org/1999/xlink" x="0px" y="0px"
	 viewBox="0 0 32.25 32.25" style="enable-background:new 0 0 32.25 32.25;" xml:space="preserve">
<style type="text/css">
	.st0{fill:#1D1D1B;}
</style>
<g>
	<path d="M22.79,10.2c-0.13-0.16-0.35-0.2-0.53-0.09l-2.19,1.39h-2.86c-0.04,0-0.07,0.01-0.11,0.02l-2.22,0.64l-2.3-0.63l-2.23-1.42
		c-0.17-0.11-0.4-0.07-0.52,0.09l-3.75,4.65c-0.13,0.17-0.11,0.41,0.05,0.55l1.97,1.69l1.77,2.38c-0.52,0.55-0.51,1.42,0.03,1.95
		c0.24,0.24,0.54,0.37,0.85,0.4c-0.01,0.07-0.02,0.14-0.02,0.22c0,0.37,0.15,0.73,0.41,0.99c0.27,0.27,0.62,0.41,0.99,0.41
		c0,0,0.01,0,0.01,0c0,0.01,0,0.02,0,0.03c0,0.38,0.15,0.73,0.41,0.99c0.26,0.27,0.62,0.41,0.99,0.41c0.07,0,0.15-0.01,0.22-0.02
		c0.03,0.31,0.17,0.62,0.4,0.86c0.27,0.27,0.63,0.41,0.99,0.41c0.36,0,0.72-0.14,0.99-0.41l0.22-0.21l0.09,0.07
		c0.27,0.26,0.62,0.39,0.98,0.39c0.36,0,0.72-0.14,0.99-0.41c0.28-0.28,0.42-0.65,0.41-1.02c0.37,0.01,0.74-0.13,1.02-0.41
		c0.28-0.28,0.42-0.65,0.41-1.02c0.38,0.01,0.74-0.14,1.02-0.41c0.28-0.28,0.42-0.65,0.41-1.02c0.37,0.01,0.74-0.13,1.02-0.41
		c0.48-0.48,0.54-1.21,0.18-1.76l1.29-2.7l1.94-1.67c0.16-0.14,0.18-0.38,0.06-0.54L22.79,10.2z M6.94,15.04l3.29-4.07l1.61,1.02
		l-3.49,4.26L6.94,15.04z M10.45,20.86c-0.24-0.24-0.24-0.63,0-0.86l0.49-0.48c0.01-0.02,0.03-0.03,0.05-0.04
		c0.1-0.08,0.21-0.12,0.33-0.13c0,0,0.01,0,0.01,0c0.02,0,0.03,0,0.05,0c0.17,0,0.32,0.07,0.43,0.19c0.22,0.24,0.21,0.63-0.03,0.86
		l-0.47,0.47C11.08,21.1,10.69,21.1,10.45,20.86z M12.13,22.65c-0.16,0-0.32-0.06-0.43-0.18c-0.11-0.12-0.18-0.27-0.18-0.43
		c0-0.16,0.06-0.32,0.18-0.43l0.94-0.94c0.18-0.18,0.46-0.23,0.69-0.12c0.24,0.11,0.37,0.37,0.34,0.63
		c-0.02,0.14-0.08,0.27-0.18,0.37l-0.93,0.92C12.44,22.59,12.29,22.65,12.13,22.65z M13.98,23.91c-0.12,0.11-0.27,0.18-0.43,0.18
		c-0.16,0-0.32-0.06-0.43-0.18c-0.12-0.12-0.18-0.27-0.18-0.43c0-0.16,0.06-0.32,0.18-0.43l0.94-0.94c0.19-0.19,0.5-0.23,0.74-0.1
		c0.22,0.13,0.33,0.37,0.29,0.62c-0.02,0.13-0.08,0.26-0.18,0.36L13.98,23.91z M16.07,24.69l-0.47,0.47c-0.24,0.24-0.63,0.24-0.86,0
		c-0.24-0.24-0.24-0.63,0-0.86l0.49-0.49c0.01-0.01,0.03-0.03,0.05-0.04c0,0,0,0,0,0c0.08-0.06,0.17-0.11,0.27-0.13c0,0,0,0,0.01,0
		c0.02,0,0.03,0,0.05-0.01c0.01,0,0.01,0,0.02,0c0.01,0,0.03,0,0.04,0c0.17,0,0.32,0.07,0.43,0.19c0.01,0.01,0.03,0.03,0.04,0.05
		C16.32,24.11,16.29,24.46,16.07,24.69z M22.15,20.72c-0.24,0.24-0.62,0.24-0.86,0c-0.01-0.01-0.02-0.02-0.03-0.02l-2.56-2.58
		c-0.16-0.16-0.41-0.16-0.56,0c-0.16,0.15-0.16,0.41,0,0.56l2.58,2.61c0,0,0,0,0,0c0.24,0.24,0.24,0.63,0,0.86
		c-0.12,0.12-0.27,0.18-0.43,0.18c-0.16,0-0.32-0.06-0.43-0.18l-1.73-1.75c-0.15-0.16-0.41-0.16-0.56,0c-0.16,0.16-0.16,0.41,0,0.56
		l1.7,1.72c0.01,0.01,0.02,0.02,0.03,0.03c0.24,0.24,0.24,0.63,0,0.86c-0.24,0.24-0.63,0.24-0.86,0l-0.94-0.95
		c-0.15-0.16-0.41-0.16-0.56,0c-0.16,0.15-0.16,0.41,0,0.56l0.92,0.93c0.01,0.01,0.02,0.02,0.03,0.03c0.24,0.24,0.24,0.62,0,0.86
		c-0.24,0.24-0.63,0.24-0.86,0c-0.03-0.03-0.06-0.05-0.09-0.07c-0.03-0.02-0.03-0.03-0.02-0.07c0.01-0.03,0.03-0.06,0.05-0.09
		c0.01-0.04,0.03-0.07,0.04-0.11c0.06-0.2,0.08-0.41,0.05-0.61c-0.05-0.39-0.27-0.74-0.59-0.97c-0.18-0.12-0.38-0.2-0.59-0.23
		c0.1-0.45-0.02-0.94-0.34-1.28c-0.26-0.28-0.62-0.43-1-0.44c-0.01,0-0.03,0-0.04,0c0.01-0.36-0.12-0.73-0.38-0.99
		c-0.26-0.28-0.62-0.43-1-0.44c-0.11,0-0.23,0.01-0.34,0.04c-0.05-0.33-0.21-0.63-0.46-0.85c-0.25-0.22-0.56-0.34-0.9-0.34
		c-0.35,0-0.7,0.13-0.96,0.36l-1.54-2.07l3.68-4.48l1.17,0.32l-1.53,2.7c-0.18,0.33-0.23,0.71-0.13,1.07
		c0.1,0.36,0.33,0.66,0.66,0.85c0.02,0.01,0.04,0.02,0.06,0.03c0,0,0,0,0,0c0.06,0.03,0.11,0.05,0.17,0.07
		c0.27,0.09,0.55,0.1,0.83,0.03c0.36-0.1,0.66-0.33,0.85-0.66L15.65,15l1.78,0.13l4.73,4.73C22.39,20.09,22.39,20.48,22.15,20.72z
		 M22.32,18.9l-4.44-4.44c-0.01-0.01-0.02-0.02-0.03-0.02c-0.06-0.05-0.14-0.09-0.23-0.09l-2.17-0.15c-0.15-0.01-0.3,0.07-0.37,0.2
		l-1.12,1.97c-0.08,0.14-0.21,0.24-0.37,0.29c-0.16,0.04-0.32,0.02-0.46-0.06c-0.14-0.08-0.24-0.21-0.29-0.37
		c-0.04-0.16-0.02-0.32,0.06-0.46l1.49-2.64l0.6-0.17c0,0,0.01,0,0.01,0l2.26-0.65h2.73l3.4,4.33L22.32,18.9z M23.92,16L20.77,12
		l1.61-1.02l2.94,3.82L23.92,16z"/>
	<path d="M18.27,10.76c0.1,0,0.2-0.04,0.28-0.12l2.72-2.72c0.16-0.16,0.16-0.41,0-0.56c-0.16-0.16-0.41-0.16-0.56,0l-2.72,2.72
		c-0.16,0.16-0.16,0.41,0,0.56C18.07,10.72,18.17,10.76,18.27,10.76z"/>
	<path d="M13.7,10.64c0.08,0.08,0.18,0.12,0.28,0.12c0.1,0,0.2-0.04,0.28-0.12c0.16-0.16,0.16-0.41,0-0.56l-2.72-2.72
		c-0.16-0.16-0.41-0.16-0.56,0c-0.16,0.16-0.16,0.41,0,0.56L13.7,10.64z"/>
	<path d="M16.13,10.76c0.22,0,0.4-0.18,0.4-0.4V8.11c0-0.22-0.18-0.4-0.4-0.4c-0.22,0-0.4,0.18-0.4,0.4v2.25
		C15.73,10.58,15.91,10.76,16.13,10.76z"/>
	<path d="M16.14,6.91c0.16-0.01,0.31-0.12,0.36-0.28c0.05-0.16,0-0.34-0.14-0.44c-0.13-0.1-0.32-0.11-0.46-0.01
		c-0.16,0.1-0.22,0.31-0.15,0.48C15.82,6.82,15.98,6.92,16.14,6.91z"/>
</g>
</svg>
