<?xml version="1.0" encoding="utf-8"?>
<!-- Generator: Adobe Illustrator 26.2.1, SVG Export Plug-In . SVG Version: 6.00 Build 0)  -->
<svg version="1.1" id="Layer_1" xmlns="http://www.w3.org/2000/svg" xmlns:xlink="http://www.w3.org/1999/xlink" x="0px" y="0px"
	 viewBox="0 0 32.25 32.25" style="enable-background:new 0 0 32.25 32.25;" xml:space="preserve">
<g>
	<path d="M25.2,22.85c-0.69-1.79-1.93-3.06-3.67-3.85c-0.74-0.33-1.52-0.49-2.33-0.53c-0.22-0.01-0.39,0.06-0.5,0.25
		c-0.05,0.08-0.1,0.17-0.15,0.25c-0.88,1.56-3.07,1.85-4.35,0.66c-0.28-0.26-0.48-0.56-0.67-0.88c-0.11-0.2-0.27-0.28-0.49-0.27
		c-0.05,0-0.09,0-0.14,0c-0.74,0.04-1.45,0.21-2.13,0.51c-1.74,0.76-2.98,2-3.69,3.77c-0.22,0.56-0.4,1.13-0.42,1.74
		c-0.01,0.39-0.01,0.79-0.01,1.18c0,0.19,0.19,0.38,0.38,0.38c3.03,0,6.06-0.01,9.09-0.01c3.02,0,6.04-0.01,9.06-0.01
		c0.21,0,0.38-0.15,0.39-0.37C25.65,24.69,25.55,23.75,25.2,22.85z M14.91,21.13c0.8,0.2,1.61,0.23,2.4-0.03
		c0.01,0.01,0.02,0.01,0.04,0.02c-0.4,0.69-0.81,1.38-1.21,2.07c-0.01,0-0.03,0-0.04,0.01c-0.4-0.68-0.8-1.36-1.2-2.04
		C14.9,21.15,14.9,21.14,14.91,21.13z M7.56,25.12c0.05-1.8,0.7-3.3,2.09-4.44c0.79-0.65,1.71-1.03,2.72-1.2
		c0.43-0.07,0.42-0.07,0.64,0.31c0.84,1.45,1.69,2.89,2.54,4.34c0.08,0.13,0.17,0.26,0.28,0.37c0.17,0.19,0.4,0.19,0.57,0
		c0.14-0.16,0.26-0.34,0.37-0.52c0.82-1.4,1.63-2.81,2.45-4.21c0.02-0.03,0.04-0.07,0.06-0.1c0.07-0.21,0.21-0.25,0.42-0.22
		c1.94,0.3,3.41,1.26,4.34,3c0.42,0.78,0.6,1.63,0.63,2.51c0,0.04,0,0.08,0,0.13C18.96,25.11,13.26,25.12,7.56,25.12z"/>
	<path d="M11.73,13.1c0.07,0.04,0.09,0.08,0.09,0.16c0.01,0.36,0.02,0.73,0.03,1.09c0.01,0.58,0.13,1.12,0.41,1.62
		c0.82,1.51,2.04,2.41,3.82,2.47c0.32-0.03,0.66-0.03,0.98-0.1c0.84-0.2,1.54-0.64,2.13-1.27c0.69-0.74,1.1-1.6,1.17-2.61
		c0.03-0.39,0.02-0.79,0.02-1.18c0-0.1,0.03-0.15,0.11-0.2c0.12-0.07,0.23-0.15,0.34-0.24c0.58-0.51,0.65-1.27,0.18-1.89
		c-0.08-0.1-0.12-0.24-0.16-0.36c-0.03-0.1-0.04-0.21-0.05-0.32c-0.27-2.15-2.19-4.13-4.67-4.15l0,0c-1.03-0.01-1.97,0.3-2.79,0.92
		c-1.09,0.83-1.77,1.91-1.95,3.28c-0.04,0.28-0.1,0.53-0.27,0.76c-0.3,0.41-0.31,0.87-0.08,1.32C11.19,12.72,11.44,12.93,11.73,13.1
		z M19.44,13.55c-0.04,0.49-0.03,1-0.13,1.48c-0.21,0.97-0.81,1.66-1.68,2.13c-0.6,0.32-1.25,0.35-1.91,0.31
		c-1.07-0.05-2.41-0.85-2.8-2.36c-0.09-0.36-0.1-0.75-0.13-1.12c-0.02-0.24,0-0.49,0-0.75c2.22,0,4.44-0.01,6.67-0.01
		C19.44,13.35,19.45,13.45,19.44,13.55z M14.18,7.59c0,0.19,0,0.36,0,0.54c0,0.14,0.01,0.28,0.03,0.41
		c0.03,0.24,0.25,0.43,0.47,0.42c0.22,0,0.44-0.2,0.45-0.43c0.02-0.37,0.02-0.74,0.04-1.11c0.01-0.27,0.01-0.27,0.27-0.3
		c0.48-0.06,0.97-0.06,1.45,0.03c0.08,0.01,0.12,0.04,0.12,0.14c0.01,0.35,0.02,0.7,0.04,1.05c0,0.08,0.01,0.16,0.02,0.24
		c0.04,0.23,0.2,0.38,0.43,0.39c0.2,0.01,0.41-0.13,0.45-0.34c0.04-0.23,0.04-0.47,0.06-0.7c0.01-0.1,0.01-0.21,0.02-0.32
		c0.82,0.29,1.83,1.83,1.83,2.78c-2.51,0-5.02,0.01-7.53,0.01C12.31,9.46,13.38,7.82,14.18,7.59z M12.25,11.37
		c0.71-0.02,1.42-0.03,2.13-0.04c0.58-0.01,1.15,0,1.73,0c0,0.01,0,0.01,0,0.02c1.22,0,2.44,0,3.66,0c0.07,0,0.15,0.01,0.22,0.01
		c0.23,0.03,0.36,0.16,0.37,0.38c0.01,0.11,0,0.22-0.03,0.33c-0.02,0.05-0.09,0.11-0.15,0.13c-0.14,0.03-0.29,0.05-0.43,0.05
		c-0.74,0.01-1.48,0.03-2.21,0.03c-1.46,0-2.91,0.01-4.37,0c-0.32,0-0.65-0.02-0.97-0.04c-0.05,0-0.11-0.02-0.16-0.02
		c-0.11-0.02-0.18-0.08-0.18-0.2c0-0.06-0.02-0.11-0.02-0.16C11.81,11.57,11.96,11.38,12.25,11.37z"/>
</g>
</svg>
