<?xml version="1.0" encoding="utf-8"?>
<!-- Generator: Adobe Illustrator 26.2.1, SVG Export Plug-In . SVG Version: 6.00 Build 0)  -->
<svg version="1.1" id="Layer_1" xmlns="http://www.w3.org/2000/svg" xmlns:xlink="http://www.w3.org/1999/xlink" x="0px" y="0px"
	 viewBox="0 0 32.25 32.25" style="enable-background:new 0 0 32.25 32.25;" xml:space="preserve">
<g>
	<path d="M14.86,22.54C14.87,22.54,14.87,22.54,14.86,22.54c0.62,0,0.4,0,1.01,0c4.63,0,9.27,0,13.9,0c0.3,0,0.36-0.06,0.36-0.36
		c0-0.21,0-0.43,0-0.64c0-0.24-0.08-0.31-0.32-0.31c-0.16,0-0.33,0-0.51,0c-0.02-0.44-0.04-0.86-0.07-1.29
		c-0.01-0.16-0.01-0.32-0.03-0.48c-0.02-0.24-0.08-0.3-0.32-0.3c-0.03,0-0.06,0-0.1-0.01c-0.02-0.46-0.05-0.91-0.07-1.36
		c-0.06-1.13-0.11-2.26-0.16-3.4c-0.04-0.8-0.08-1.6-0.11-2.4c-0.03-0.64-0.06-1.29-0.09-1.93c0-0.07,0.04-0.14,0.06-0.21
		c0.02-0.07,0.06-0.14,0.07-0.21c0.01-0.25,0.01-0.51,0-0.76c0-0.19-0.08-0.27-0.28-0.27c-0.9,0-1.8,0-2.69,0
		c-0.2,0-0.28,0.09-0.28,0.29c0,0.21,0,0.43,0,0.64c0,0.13,0,0.25,0.11,0.35c0.03,0.03,0.03,0.11,0.03,0.16
		c-0.04,0.83-0.08,1.66-0.12,2.48c-0.01,0.29-0.03,0.58-0.05,0.9c-1.01-0.12-2-0.24-3-0.36c-0.01-0.28-0.03-0.54-0.04-0.8
		c-0.04-0.75-0.07-1.51-0.11-2.26c0-0.04,0-0.09,0.02-0.11c0.14-0.1,0.12-0.24,0.12-0.38c0-0.21,0-0.43,0-0.64
		c0-0.19-0.08-0.27-0.26-0.27c-0.91,0-1.82,0-2.73,0c-0.18,0-0.26,0.09-0.26,0.27c0,0.25,0,0.51,0,0.76c0,0.06,0.03,0.12,0.05,0.18
		c0.03,0.09,0.09,0.17,0.08,0.26c-0.03,0.82-0.08,1.63-0.12,2.45c0,0.04-0.01,0.08-0.02,0.14c-0.28-0.03-0.55-0.06-0.82-0.09
		c-0.83-0.1-1.67-0.2-2.5-0.3c-0.51-0.06-1.01-0.12-1.52-0.18c-0.19-0.02-0.32,0.06-0.33,0.21c-0.01,0.14,0.09,0.26,0.27,0.28
		c0.18,0.02,0.36,0.04,0.55,0.06v0.55c-0.02,0.01-0.04,0.02-0.06,0.04c-0.75,0.6-1.5,1.2-2.25,1.8c-0.03,0.03-0.07,0.05-0.12,0.08
		c0-0.56,0-1.1,0-1.63c0-0.15-0.02-0.28-0.17-0.35c-0.15-0.07-0.27-0.01-0.39,0.09c-0.74,0.59-1.48,1.19-2.22,1.78
		c-0.05,0.04-0.09,0.07-0.16,0.12V14.9c0-0.47,0-0.94,0-1.42c0-0.15-0.04-0.28-0.18-0.35c-0.14-0.07-0.26-0.02-0.36,0.08
		c-0.02,0.02-0.05,0.04-0.08,0.06c-0.71,0.57-1.43,1.14-2.14,1.71c-0.05,0.04-0.1,0.08-0.18,0.14c0-0.57,0-1.1,0-1.63
		c0-0.37-0.23-0.49-0.54-0.3c-0.92,0.55-1.84,1.1-2.76,1.66c-0.09,0.05-0.16,0.14-0.24,0.22v7.29c0.1,0.12,0.22,0.18,0.38,0.18
		C8.03,22.54,11.95,22.54,14.86,22.54z M17.84,21.95h-5.08v-3.51h5.08V21.95z M28.73,19.65c0.02,0.53,0.05,1.05,0.07,1.57h-1.69
		v-1.57H28.73z M25.73,9.12h2.26v0.32h-2.26V9.12z M25.87,9.95h1.99c0.15,3.07,0.29,6.13,0.44,9.2h-1.17v-4.98
		c0.2,0.02,0.38,0.04,0.56,0.05c0.15,0.01,0.25-0.09,0.25-0.23c0-0.15-0.08-0.24-0.22-0.26c-0.39-0.05-0.79-0.09-1.18-0.14
		c-0.27-0.03-0.54-0.07-0.82-0.11C25.76,12.3,25.81,11.13,25.87,9.95z M19.44,9.12h2.26v0.32h-2.26V9.12z M21.71,12.99
		c-0.03,0.01-0.04,0.01-0.05,0.01c-0.69-0.08-1.39-0.16-2.08-0.25c-0.11-0.01-0.12-0.07-0.12-0.16c0.03-0.64,0.06-1.27,0.08-1.91
		c0.01-0.25,0.03-0.49,0.04-0.74h1.98C21.61,10.97,21.66,11.99,21.71,12.99z M15.09,12.72c3.85,0.46,7.68,0.92,11.52,1.38v7.12
		h-6.03v0.5h9.08v0.33h-8.27h-0.97c0-2.16,0-4.33,0-6.49c0-0.29-0.1-0.39-0.39-0.39c-0.22,0-0.45,0-0.67,0l-3.64-0.01h-0.59v-0.2
		c0-0.48,0-0.95,0-1.43c0-0.07-0.01-0.14-0.02-0.2V12.72z M3.45,15.26c0.69-0.41,1.38-0.82,2.07-1.24C5.56,14,5.6,13.98,5.65,13.95
		c0,0.06,0.01,0.11,0.01,0.16c0,0.52,0,1.04,0,1.55c0,0.15,0.03,0.29,0.18,0.36c0.15,0.07,0.27,0,0.39-0.09
		c0.75-0.6,1.5-1.2,2.25-1.8c0.03-0.02,0.06-0.05,0.13-0.1c0,0.51,0,0.97,0,1.44c0,0.08,0,0.16,0,0.24c0,0.13,0.04,0.26,0.17,0.31
		c0.13,0.06,0.25,0.02,0.37-0.07c0.35-0.28,0.7-0.56,1.05-0.84c0.44-0.35,0.89-0.71,1.35-1.08c0,0.07,0.01,0.12,0.01,0.17
		c0,0.5,0,1,0,1.5c0,0.14,0.03,0.25,0.16,0.32c0.14,0.07,0.25,0.03,0.37-0.06c0.74-0.59,1.47-1.18,2.21-1.77
		c0.06-0.05,0.12-0.09,0.2-0.15v0.38c0,0.31,0,0.61,0,0.92c0,0.15,0.03,0.26,0.08,0.32v0.06h0.09c0.06,0.03,0.14,0.05,0.26,0.05
		c1.4,0,2.81,0,4.21,0h0.66v6.17h-0.64h-0.06h-0.65c0-0.06-0.01-0.13-0.01-0.2c0-1.15,0-2.3,0-3.45c0-0.38-0.09-0.47-0.46-0.47
		c-0.68,0-4.71,0-5.4,0c-0.34,0-0.44,0.1-0.44,0.44c0,1.16,0,2.33,0,3.49v0.2H3.32v-0.18c0-2.08,0-4.17,0-6.25
		C3.31,15.39,3.34,15.33,3.45,15.26z"/>
	<path d="M7.2,20.78c0.35,0,0.7,0,1.05,0c0.25,0,0.37-0.12,0.37-0.37c0-0.27,0-0.54,0-0.81c0-0.27,0-0.54,0-0.81
		c0-0.25-0.11-0.37-0.35-0.38c-0.36-0.01-0.73-0.01-1.09,0c-0.23,0.01-0.34,0.12-0.35,0.35c-0.01,0.56-0.01,1.12,0,1.67
		C6.85,20.67,6.97,20.78,7.2,20.78z M7.46,19.02h0.55v1.14H7.46V19.02z"/>
	<path d="M4.86,20.78c0.34,0,0.69,0,1.04,0c0.25,0,0.37-0.11,0.37-0.35c0.01-0.56,0.01-1.12,0-1.67c0-0.23-0.12-0.34-0.35-0.34
		c-0.36-0.01-0.73-0.01-1.09,0c-0.24,0.01-0.34,0.13-0.34,0.36c0,0.28,0,0.55,0,0.83c0,0.27,0,0.54,0,0.81
		C4.49,20.67,4.6,20.78,4.86,20.78z M5.09,19.03h0.57v1.13c-0.02,0.01-0.02,0.02-0.03,0.02c-0.54,0.05-0.54,0.05-0.54-0.48V19.03z"
		/>
	<path d="M9.54,20.78c0.37,0,0.74,0,1.1,0c0.21,0,0.33-0.12,0.33-0.34c0-0.28,0-0.56,0-0.85c0-0.27,0-0.54,0-0.81
		c0-0.25-0.1-0.37-0.35-0.38c-0.36-0.01-0.72-0.01-1.09,0c-0.22,0.01-0.33,0.12-0.34,0.33c-0.01,0.57-0.01,1.14,0,1.71
		C9.21,20.67,9.33,20.77,9.54,20.78z M9.81,19.02h0.56v1.15H9.81V19.02z"/>
	<path d="M22.45,16.49c0.29,0.01,0.58,0,0.86,0c0.17,0,0.34,0,0.52,0c0.44,0,0.87,0,1.31,0c0.14,0,0.25-0.04,0.29-0.19
		c0.05-0.17-0.07-0.3-0.27-0.31c-0.31-0.01-0.61,0-0.92,0c-0.55,0-1.1,0-1.66,0c-0.05,0-0.1,0-0.16,0
		c-0.15,0.01-0.23,0.09-0.24,0.24C22.19,16.38,22.3,16.49,22.45,16.49z"/>
	<path d="M22.51,17.32c0.44,0,0.87,0,1.31,0c0.44,0,0.87,0,1.31,0c0.2,0,0.31-0.09,0.31-0.24c0-0.16-0.09-0.25-0.3-0.25
		c-0.88,0-1.76,0-2.64,0c-0.2,0-0.31,0.1-0.31,0.25C22.2,17.23,22.31,17.32,22.51,17.32z"/>
	<path d="M25.24,17.67c-0.06-0.01-0.13-0.01-0.19-0.01c-0.82,0-1.63,0-2.45,0c-0.03,0-0.07,0-0.1,0c-0.2,0.01-0.31,0.1-0.3,0.26
		c0.01,0.14,0.12,0.24,0.3,0.24c0.03,0,0.07,0,0.1,0c0.41,0,0.82,0,1.23,0c0.43,0,0.85,0,1.28,0c0.06,0,0.12,0,0.17-0.02
		c0.12-0.04,0.18-0.12,0.17-0.25C25.44,17.76,25.37,17.69,25.24,17.67z"/>
	<path d="M29.96,22.89H2.9c-0.1,0-0.17,0.08-0.17,0.17v0.26c0,0.1,0.08,0.17,0.17,0.17h27.07c0.09,0,0.17-0.08,0.17-0.17v-0.26
		C30.14,22.97,30.06,22.89,29.96,22.89z"/>
</g>
</svg>
