<?xml version="1.0" encoding="UTF-8"?>
<svg id="katman_1" xmlns="http://www.w3.org/2000/svg" version="1.1" viewBox="0 0 195 58">
  <!-- Generator: Adobe Illustrator 30.1.0, SVG Export Plug-In . SVG Version: 2.1.1 Build 136)  -->
  <path d="M21.29,12.85l.15.32s.03.06.05.09v.37c.01.65.54,1.17,1.19,1.17h.28v.72c.01.36.2.68.51.86l.57.32v.36l-.11.06h-1.43c-.38,0-.68.14-.85.47-.06.06-.11.14-.16.21l-.22.4s-.04.08-.06.12c-.21.55-.12,1.35.57,1.8.06.04.13.08.2.1v.22c-.08.15-.14.31-.16.49-.03.31.06.6.25.84l.04.66.14,2.53-6.42.02.15-3.21c.08-.1.14-.22.18-.35.1-.31.06-.64-.11-.95v-.21c.26-.11.5-.3.67-.56.24-.38.28-.85.11-1.32-.01-.04-.03-.08-.05-.11l-.19-.39c-.06-.12-.14-.23-.25-.32-.19-.27-.49-.43-.82-.43h-1.42l-.1-.04v-.35c.16-.09.36-.21.61-.38.28-.19.45-.5.45-.84v-.71h.29c.31,0,.61-.13.83-.35.22-.22.34-.52.34-.83v-.35s.05-.08.07-.13l.14-.31h4.56M21.97,11.84h-5.95c-.14,0-.11.09-.11.09v.26l-.24.56c-.16.08-.16.18-.16.18v.71c0,.09-.07.17-.16.17h-1.07c-.22,0-.22.23-.22.23v1.48s-.69.45-.89.51c-.2.06-.17.22-.17.22v1.34l.13.14.54.31c.1.08.17.1.22.1h.05l1.58-.02c.08.13.17.19.17.19l.19.39c.22.62-.43.7-.43.7-.39.11-.37.24-.37.24l-.05,1.18c0,.1.14.13.14.13.12.21-.07.27-.13.3-.06.03-.05.12-.05.12l-.17,3.6h-.99c-.11.02-.09.12-.09.12l.02.41c.05.46.56.48.56.48h.84l8.44-.03c.3,0,.39-.06.39-.06.45-.18.34-.73.34-.73.02-.18-.06-.21-.11-.21h-.97l-.14-2.58-.06-1.07c0-.1-.09-.1-.12-.1h-.01c-.21-.13-.06-.27.02-.3.09-.03.07-.1.07-.1l-.08-1.16c0-.14-.17-.19-.17-.19l-.45-.16c-.34-.22-.19-.61-.19-.61l.22-.4c.06-.03.13-.17.13-.17h1.55c.15,0,.24-.05.24-.05l.6-.32c.1-.05.16-.16.16-.27v-1.26c0-.12-.11-.16-.11-.16l-.98-.55v-1.45c.01-.23-.21-.26-.21-.26h-1.08c-.1,0-.18-.08-.18-.18v-.72c0-.07-.07-.11-.07-.11l-.08-.05-.26-.55v-.26c0-.07-.07-.08-.1-.08h.02Z"/>
  <path d="M176.71,12.81h4.56l.14.32s.04.09.07.13v.35c0,.31.11.61.33.83s.51.35.83.35h.29v.71c0,.34.17.65.45.84.25.17.45.29.61.38v.35l-.1.06h-1.42c-.33-.01-.63.15-.82.42-.1.09-.19.2-.25.32l-.19.39s-.03.08-.05.11c-.16.47-.12.94.11,1.32.17.27.41.45.66.57v.21c-.16.3-.2.64-.1.95.04.13.1.25.18.35l.15,3.21-6.42-.02.14-2.53.04-.66c.19-.24.28-.53.25-.84-.02-.18-.08-.34-.17-.49v-.22c.09-.03.16-.06.22-.1.69-.46.78-1.26.57-1.8-.02-.04-.04-.08-.06-.12l-.22-.4c-.05-.08-.1-.16-.17-.22-.18-.29-.5-.46-.84-.46h-1.43l-.11-.06v-.36l.58-.32c.31-.18.5-.5.51-.86v-.72h.29c.65,0,1.18-.53,1.18-1.17v-.37s.04-.06.05-.09l.15-.32M176.03,11.8s-.1,0-.11.08v.26l-.25.55-.08.05s-.07.03-.06.11v.72c0,.1-.09.18-.19.18h-1.08s-.22.03-.2.26v1.45l-.99.55s-.11.04-.1.16v1.26c0,.11.05.22.15.27l.6.32s.1.06.24.06h1.55s.08.13.13.16l.22.4s.15.39-.19.61l-.45.16s-.16.05-.17.19l-.08,1.16s-.02.07.07.1c.09.03.23.18.02.3h0s-.12,0-.12.1l-.06,1.07-.14,2.58h-.97c-.05,0-.14.03-.11.21,0,0-.11.55.34.73,0,0,.09.06.39.06l8.44.03h.84s.5-.02.56-.48l.02-.41s.02-.11-.09-.11h-.99l-.17-3.62s0-.08-.05-.12c-.06-.03-.25-.09-.13-.3,0,0,.15-.03.14-.13l-.05-1.18s.02-.13-.37-.24c0,0-.64-.08-.43-.7l.19-.39s.09-.06.17-.19l1.58.02h.05c.05,0,.13-.02.22-.1l.54-.31.14-.14v-1.34s.02-.16-.18-.22-.89-.51-.89-.51v-1.48s0-.22-.22-.22h-1.07c-.09,0-.17-.08-.17-.18v-.71s0-.1-.15-.18l-.25-.56v-.26s.03-.09-.11-.09h-5.95.03Z"/>
  <path d="M174.1,27.34h9.68c1.64,1.16,2.03,2.79,2.05,2.85,0,.04.02.08.03.12.49,1.36-.39,2.4-.42,2.43-.26.29-.33.71-.17,1.07.08.19.22.35.39.45v.17c.05.41.33.75.71.87l.44,2.16s0,.06.02.09c0,.03,0,.05.02.06l-.85,3.65c-.29.11-.52.36-.61.67l-.14.5h-2.88c-.5,0-.86.24-1.05.54-.13.15-.24.17-.27.18h-4.23c-.17,0-.3-.17-.31-.19-.21-.35-.59-.55-1.03-.55h-2.9l-.13-.51c-.11-.44-.5-.74-.95-.75l-1.62-.02-.82-.53s-.06-.04-.09-.05c-.22-.11-.45-.17-.68-.17-.32,0-.55.1-.71.21l-.49.25h-.74c-.26,0-.52.11-.71.29-.19.19-.29.44-.29.71v.52c0,.25-.2.45-.45.45s-.45-.2-.45-.45v-.16c0-.55-.45-1-1-1H34.56c-.55,0-1,.45-1,1v.16c0,.25-.2.45-.45.45s-.45-.2-.45-.45v-.48c0-.27-.11-.52-.29-.71-.19-.19-.44-.29-.71-.29h-.74l-.49-.24c-.16-.11-.4-.21-.71-.21-.23,0-.46.06-.68.17-.03.02-.06.03-.09.05l-.82.53-1.61.02c-.45,0-.84.31-.95.75l-.13.5h-2.9c-.43,0-.8.2-1.02.54-.03.04-.16.19-.32.19h-4.18s-.04,0-.05,0h-.01s-.15-.04-.26-.17c-.19-.3-.55-.54-1.05-.54h-2.88l-.14-.49c-.09-.32-.32-.56-.61-.67l-.85-3.65s0-.04.02-.06c0-.03.02-.06.02-.09l.44-2.16c.38-.12.66-.45.7-.87v-.17c.18-.1.32-.26.4-.44.16-.35.09-.77-.16-1.07-.04-.04-.91-1.08-.43-2.44.01-.04.02-.08.03-.12.02-.07.41-1.7,2.05-2.85h9.68c.46.29,1.67,1.26,2.14,3.24,0,.02.02.06.03.09.01.04.32,1.04-.53,2.08-.24.3-.29.71-.13,1.05.08.18.21.32.37.42v.11c.02.54.46.97,1,.97h.01s.03.03.05.04c.27.2.59.23.9.23h1.35c.1,0,.21-.01.3-.04.36-.11.81-.41,1.02-.89,0-.02.02-.04.03-.06.18-.09.42-.2.43-.2.03,0,.06-.03.09-.05h.7c.55,0,1-.45,1-1v-.72c0-.25.2-.45.45-.45s.45.2.45.45v.16c0,.55.45,1,1,1h128.87c.55,0,1-.45,1-1v-.16c0-.25.2-.45.45-.45s.45.2.45.45v.68c0,.55.45,1,1,1h.7s.06.04.09.05c0,0,.24.11.43.2,0,.02.02.04.03.06.21.49.66.78,1.02.9.1.03.2.05.3.05h1.36c.31,0,.62-.03.9-.23.02,0,.03-.02.05-.04h0c.54,0,.99-.43,1-.97v-.11c.16-.1.29-.24.37-.42.16-.35.11-.76-.13-1.05-.84-1.04-.54-2.04-.53-2.07,0-.03.02-.07.03-.1.47-1.98,1.67-2.95,2.14-3.25M173.83,26.34s-2.14,1.08-2.84,4.02c0,0-.53,1.51.7,3.03h-.57s-.15,0-.11.35v.28s0,.09.14.09h.07v.2h-.42s-.15.02-.24.24c0,0-.04.03-.3.03h-1.36s-.31-.09-.41-.34c0,0-.19-.39-.31-.45-.13-.06-.64-.3-.64-.3,0,0-.08-.12-.26-.14h-.95v-.69c0-.8-.65-1.45-1.45-1.45s-1.45.65-1.45,1.45v.16H34.56v-.16c0-.8-.65-1.45-1.45-1.45s-1.45.65-1.45,1.45v.72h-.95c-.18.02-.26.14-.26.14,0,0-.51.24-.64.3-.13.06-.31.45-.31.45-.1.26-.41.36-.41.36h-1.36c-.26,0-.3-.03-.3-.03-.09-.22-.2-.24-.24-.24h-.42v-.19h.07c.14,0,.16-.09.16-.09v-.28c.03-.34-.1-.35-.12-.35h-.57c1.23-1.53.7-3.04.7-3.04-.7-2.95-2.84-4.02-2.84-4.02h-10.26c-2.24,1.42-2.72,3.64-2.72,3.64-.7,1.97.62,3.44.62,3.44h-.56c-.1,0-.13.12-.13.12v.47c.01.12.16.13.21.13h.02l-.02.2h-.35c-.25.02-.23.29-.23.29l-.53,2.63c-.1.34-.04.52-.04.52l.98,4.18c0,.22.15.23.19.23h.3l.18.67c.07.52.71.56.89.56h2.91c.19,0,.22.11.22.11.43.57.95.62,1.11.62h4.23c.75,0,1.16-.65,1.16-.65.04-.07.12-.08.18-.08h3.05c.52-.05.72-.38.72-.38l.23-.87,1.74-.02c.22,0,.25-.06.25-.06l.98-.62c.1-.05.17-.06.24-.06.13,0,.19.07.19.07l.6.3c.06.08.17.09.22.09h.95v.48c0,.8.65,1.45,1.45,1.45s1.45-.65,1.45-1.45v-.16h128.87v.16c0,.8.65,1.45,1.45,1.45s1.45-.65,1.45-1.45v-.52h.95s.16,0,.22-.09l.6-.3s.06-.07.19-.07c.06,0,.14.02.24.06l.98.62s.03.05.25.06l1.74.02.23.87s.19.34.72.37h3.05c.06,0,.14,0,.18.08,0,0,.4.64,1.16.64h4.18s.02,0,.05,0c.16,0,.68-.05,1.11-.62,0,0,.03-.11.22-.11h2.91c.18,0,.81-.04.89-.56l.18-.67h.3s.19,0,.19-.23l.98-4.18s.06-.19-.04-.52l-.53-2.63s.02-.27-.23-.29h-.35l-.02-.19h.02c.05,0,.2,0,.21-.13v-.47s-.03-.12-.13-.12h-.56s1.32-1.46.62-3.44c0,0-.49-2.22-2.72-3.63h-10.26l-.07-.02Z"/>
</svg>