<svg width="160" height="60" viewBox="0 0 160 60" fill="none" xmlns="http://www.w3.org/2000/svg">
<path d="M37.9897 44.2709L37.8045 44.036C38.7036 43.8571 39.5751 43.5602 40.3963 43.153C40.8917 42.907 41.3678 42.6237 41.8204 42.3057C43.1303 41.3618 44.197 40.12 44.9324 38.6826C45.6678 37.2452 46.0508 35.6536 46.0499 34.039V33.327C46.0508 31.9855 45.7874 30.6571 45.2747 29.4174C44.762 28.1778 44.01 27.0514 43.0618 26.1025C42.1136 25.1536 40.9876 24.4009 39.7484 23.8873C38.5091 23.3737 37.1808 23.1094 35.8393 23.1094H18.5156V58.9317H28.2206V44.9118L37.6194 58.8889H49.6385L38.125 44.4418L37.9897 44.2709ZM35.6613 35.3421C35.6475 35.4761 35.6261 35.6092 35.5972 35.7408C35.5972 35.7408 35.5972 35.8049 35.5972 35.8334C35.4649 36.4396 35.2136 37.0135 34.8579 37.5219C34.5023 38.0304 34.0493 38.4632 33.5252 38.7954C32.7812 39.2636 31.9193 39.5105 31.0402 39.5074H28.2206V30.1798H31.026C31.5272 30.1797 32.0251 30.2615 32.4999 30.4219L32.5996 30.4575L32.8702 30.5643C32.9613 30.5998 33.0494 30.6427 33.1336 30.6925L33.3615 30.8135H33.4113C34.078 31.2129 34.6343 31.7724 35.0298 32.4415C35.4252 33.1105 35.6472 33.8677 35.6756 34.6443V34.7012C35.6789 34.7391 35.6789 34.7773 35.6756 34.8152C35.6827 35.0217 35.6756 35.1854 35.6613 35.3421Z" fill="#00205B"/>
<path d="M156.122 26.5906C156.396 26.4944 156.641 26.3302 156.834 26.1135C157.021 25.9023 157.118 25.6264 157.105 25.3446C157.11 25.1439 157.064 24.9452 156.97 24.7678C156.865 24.5973 156.714 24.4592 156.535 24.3691C156.367 24.273 156.18 24.2124 155.987 24.1911C155.751 24.1622 155.513 24.1503 155.275 24.1555H153.645V28.4276H154.705V26.8469H155.126L156.429 28.4276H157.781L156.122 26.5906ZM155.852 25.729C155.808 25.8081 155.75 25.8781 155.681 25.9355C155.588 25.9977 155.484 26.0412 155.375 26.0637C155.223 26.0799 155.071 26.0799 154.919 26.0637H154.663V24.896H154.997C155.121 24.8845 155.244 24.8845 155.368 24.896C155.468 24.9041 155.565 24.9332 155.652 24.9814C155.734 25.0146 155.802 25.075 155.845 25.1523C155.883 25.2303 155.904 25.315 155.909 25.4015C155.909 25.5132 155.89 25.6241 155.852 25.729Z" fill="#00205B"/>
<path d="M158.36 23.3596C157.757 22.7594 156.991 22.351 156.157 22.1857C155.323 22.0204 154.458 22.1057 153.673 22.4308C152.887 22.7559 152.215 23.3063 151.741 24.0126C151.268 24.7189 151.014 25.5496 151.012 26.3999C151.012 27.5424 151.466 28.6381 152.273 29.446C153.081 30.2539 154.177 30.7077 155.32 30.7077C156.462 30.7077 157.558 30.2539 158.366 29.446C159.173 28.6381 159.627 27.5424 159.627 26.3999C159.637 25.8332 159.529 25.2706 159.311 24.7474C159.093 24.2242 158.769 23.7517 158.36 23.3596ZM157.691 28.7852C157.383 29.1026 157.014 29.3549 156.607 29.5273C156.199 29.6996 155.762 29.7883 155.32 29.7883C154.877 29.7883 154.44 29.6996 154.032 29.5273C153.625 29.3549 153.256 29.1026 152.948 28.7852C152.32 28.1506 151.967 27.2933 151.967 26.3999C151.967 25.5066 152.32 24.6493 152.948 24.0146C153.256 23.6973 153.625 23.4449 154.032 23.2726C154.44 23.1003 154.877 23.0115 155.32 23.0115C155.762 23.0115 156.199 23.1003 156.607 23.2726C157.014 23.4449 157.383 23.6973 157.691 24.0146C158.004 24.3275 158.254 24.6993 158.423 25.1086C158.593 25.5179 158.681 25.9567 158.681 26.3999C158.681 26.8431 158.593 27.282 158.423 27.6913C158.254 28.1006 158.004 28.4724 157.691 28.7852Z" fill="#00205B"/>
<path d="M69.9447 22.2617C59.2642 22.2617 50.5703 30.7206 50.5703 41.1661C50.5703 51.6116 59.2428 59.9994 69.9447 59.9994C80.6465 59.9994 89.3262 51.5404 89.3262 41.1092C89.3262 30.6779 80.6465 22.2617 69.9447 22.2617ZM69.9447 50.9423C68.0122 50.9381 66.1242 50.3616 64.5189 49.2856C62.9136 48.2096 61.663 46.6823 60.9248 44.8963C60.1865 43.1104 59.9938 41.1458 60.3708 39.2504C60.7478 37.355 61.6777 35.6137 63.0432 34.2462C64.4088 32.8787 66.1487 31.9463 68.0435 31.5665C69.9384 31.1867 71.9032 31.3766 73.6903 32.1123C75.4773 32.8479 77.0064 34.0964 78.0848 35.7001C79.1631 37.3038 79.7423 39.1909 79.7493 41.1234C79.7456 43.7207 78.7107 46.2101 76.8722 48.0446C75.0336 49.8792 72.5419 50.9086 69.9447 50.9067V50.9423Z" fill="#00205B"/>
<path d="M145.649 52.8006L147.785 58.8457H158.508L144.453 23.0234H133.43L119.375 58.8457H130.098L132.234 52.8006H145.62H145.649ZM139.063 34.0172L142.915 45.1961H134.997L138.963 34.0172H139.063Z" fill="#00205B"/>
<path d="M118.476 23.0664H117.6H91.8673H90.9844V31.4328H99.9916V58.789H109.725V31.4328H118.476V23.0664Z" fill="#00205B"/>
<path d="M18.1159 9.66641C18.0694 9.70421 18.0159 9.73247 17.9585 9.74958C17.9011 9.76668 17.8408 9.77229 17.7812 9.76609V9.84442H18.8137V9.76609H18.7425C18.6479 9.76611 18.5556 9.73621 18.479 9.68065C18.4382 9.63299 18.4076 9.57739 18.3892 9.51736C18.3708 9.45732 18.365 9.39413 18.3722 9.33175V7.47335L20.3232 9.9085H20.3944V7.47335C20.3775 7.37677 20.3775 7.27801 20.3944 7.18143C20.4133 7.12928 20.4482 7.08442 20.4941 7.05326C20.5736 7.02003 20.6576 6.99845 20.7433 6.98918V6.91797H19.8177V6.98918C19.8817 6.98288 19.9464 6.99114 20.0068 7.01333C20.0672 7.03552 20.1218 7.07107 20.1666 7.11734C20.2226 7.22718 20.2473 7.35039 20.2378 7.47335V8.73365L18.8137 6.9251H17.8026V6.99629C17.8744 6.99641 17.9452 7.01349 18.0091 7.04614C18.0741 7.08621 18.1299 7.1396 18.1729 7.20279L18.2298 7.27398V9.33888C18.2365 9.45881 18.1956 9.57651 18.1159 9.66641Z" fill="#00205B"/>
<path d="M7.91406 36.8301L10.4774 34.9645C12.4427 36.4628 14.7687 37.4158 17.2203 37.7272L17.6618 37.7842V22.2192H32.9847L32.9063 21.7635C32.4371 19.0827 31.1775 16.6032 29.2892 14.6432L30.6207 12.0087L30.044 11.5245L27.7014 13.2262C25.1274 11.2639 21.9618 10.237 18.726 10.3146C15.4903 10.3923 12.3775 11.5699 9.90063 13.6535L7.41564 12.0585L6.86737 12.5783L8.35552 15.1843C6.41381 17.4243 5.25629 20.2368 5.05881 23.1947L2.16797 24.3197L2.26765 25.0673L5.11578 25.4091C5.41493 28.4199 6.70754 31.2456 8.78986 33.4408L7.36579 36.3388L7.91406 36.8301ZM9.72974 33.2699L9.53749 33.0705C7.39638 30.9012 6.09445 28.0425 5.86341 25.0032V24.6828L3.94805 24.455L5.85629 23.7073V23.4581C6.00015 20.4923 7.16482 17.6674 9.15299 15.462L9.33812 15.2555L8.36976 13.5466L10.0074 14.6005L10.2282 14.4011C12.5974 12.3255 15.62 11.1473 18.7689 11.0718C21.9178 10.9964 24.9933 12.0284 27.4593 13.9881L27.6872 14.1732L29.1967 13.0909L28.3422 14.8069L28.5345 14.9992C30.2993 16.7512 31.5186 18.977 32.0448 21.4075H23.9205L27.8082 14.9992L20.8873 20.2682L19.0858 11.6455L17.6119 20.1899L10.0074 15.3979L15.2124 22.5182L6.81041 24.398L15.6182 25.758L10.6839 32.9424L16.8572 28.7699V36.8728C14.6098 36.507 12.494 35.5705 10.7123 34.1528L10.4774 33.9677L8.72577 35.2422L9.72974 33.2699Z" fill="#00205B"/>
<path d="M22.3321 4.96712C21.7482 4.88168 21.1501 4.8176 20.552 4.78911V3.15144H22.4532V1.61345C22.4542 1.51647 22.4243 1.42168 22.3677 1.34288C22.0273 0.916404 21.5934 0.573894 21.0996 0.341788C20.6057 0.109683 20.0652 -0.00579744 19.5196 0.00426461C18.9608 -0.0235573 18.4037 0.0850706 17.8963 0.320776C17.3889 0.556481 16.9465 0.912172 16.6074 1.35712C16.5584 1.43081 16.5335 1.5179 16.5362 1.60633V3.16567H18.5156V4.80335C17.9389 4.80335 17.3764 4.8888 16.8139 4.96712C12.0837 5.59779 7.7527 7.95196 4.65094 11.5784C1.54919 15.2049 -0.105092 19.8485 0.00517799 24.6192C0.115448 29.39 1.98251 33.9522 5.24851 37.4315C8.51451 40.9108 12.9497 43.0623 17.7039 43.4738V41.9429C8.4475 41.0457 1.16343 33.3985 1.16343 24.1421C1.16343 14.2805 9.38738 6.27726 19.5338 6.27726C29.0181 6.27726 36.8148 13.2694 37.7974 22.241H38.9936C38.5457 17.9141 36.6614 13.8619 33.6415 10.731C30.6216 7.6001 26.64 5.57088 22.3321 4.96712Z" fill="#00205B"/>
</svg>
