<?xml version="1.0" encoding="utf-8"?>
<!-- Generator: Adobe Illustrator 26.2.1, SVG Export Plug-In . SVG Version: 6.00 Build 0)  -->
<svg version="1.1" id="Layer_1" xmlns="http://www.w3.org/2000/svg" xmlns:xlink="http://www.w3.org/1999/xlink" x="0px" y="0px"
	 viewBox="0 0 32.25 32.25" style="enable-background:new 0 0 32.25 32.25;" xml:space="preserve">
<polygon points="18.48,12.11 18.52,12.12 18.48,12.11 "/>
<polygon points="23.94,21.82 23.95,21.83 23.94,21.82 "/>
<g>
	<path d="M15.74,8.18l-0.12,0.65l0.51,0.43l0.63-0.23l0.12-0.66l-0.51-0.43L15.74,8.18z M16.37,8.71l-0.15,0.05l-0.12-0.1l0.03-0.16
		l0.15-0.05l0.12,0.1L16.37,8.71z"/>
	<path d="M27.48,23.2l-0.25-0.47c-0.04-0.07-0.1-0.13-0.18-0.15c-0.11-0.03-0.2,0.01-0.23,0.02l-0.88,0.45l0,0
		c-0.05-0.03-0.1-0.04-0.15-0.04c-0.03-0.05-0.05-0.09-0.06-0.1c-0.03-0.08-0.1-0.13-0.17-0.15c-0.01,0-0.01,0-0.02,0
		c-0.07-0.13-0.14-0.25-0.15-0.28c-0.03-0.06-0.07-0.11-0.13-0.14c-0.06-0.03-0.14-0.03-0.2,0l-0.06,0.02
		c-0.02-0.04-0.05-0.08-0.07-0.12c0.07-0.09,0.06-0.2,0.02-0.27l-0.13-0.25l-0.01,0c0-0.01,0-0.01,0-0.02l-0.01-0.03l-0.12-0.23
		l-0.02,0c0-0.02-0.01-0.04-0.02-0.05l-0.1-0.19l0,0l-0.15-0.26l-0.02-0.01c0-0.02-0.01-0.03-0.01-0.05l-0.01-0.02l-0.06-0.1
		c-0.02-0.03-0.04-0.06-0.07-0.08c0-0.01,0-0.03-0.01-0.04l-0.01-0.02l-0.01-0.02c-0.01-0.03-0.03-0.06-0.04-0.07
		c-0.02-0.04-0.04-0.08-0.08-0.11c0-0.03-0.01-0.05-0.01-0.06l-0.01-0.02l-0.1-0.19l-0.02-0.01c-0.01-0.05-0.02-0.09-0.05-0.12
		l-3.38-6.25l-0.9-1.66l-0.01,0c-0.01-0.03-0.02-0.06-0.04-0.09c-0.01-0.02-0.02-0.04-0.02-0.04c-0.02-0.04-0.04-0.08-0.08-0.11
		c0-0.03-0.01-0.05-0.02-0.07l-0.03-0.07c-0.02-0.05-0.05-0.1-0.09-0.13c0-0.03-0.01-0.06-0.03-0.08l0-0.01
		c-0.02-0.03-0.04-0.07-0.05-0.08c-0.01-0.03-0.04-0.06-0.06-0.09c0-0.03-0.01-0.07-0.03-0.1l-0.05-0.09
		c-0.01-0.03-0.04-0.06-0.06-0.08l0-0.01c0-0.02-0.01-0.04-0.02-0.06c0-0.01-0.02-0.05-0.04-0.08c0.4-0.31,0.35-0.88,0.34-0.99
		c0-0.17-0.01-1.95,0.01-2.58c0.02-0.65-0.49-0.91-0.84-0.93l-1.09-0.01c-0.53-0.4-1.15-0.4-1.23-0.4c-0.08,0-0.69,0-1.23,0.4
		l-1.08,0.01l-0.01,0c-0.02,0-0.22,0.01-0.42,0.13C13.14,6.72,12.99,7,13,7.36c0.02,0.63,0.01,2.41,0.01,2.58
		c-0.01,0.11-0.06,0.68,0.34,0.99C13.34,10.96,13.32,11,13.31,11c-0.01,0.02-0.02,0.04-0.02,0.06l0,0.01
		c-0.03,0.02-0.05,0.05-0.06,0.08l-0.05,0.09c-0.02,0.03-0.03,0.06-0.03,0.1c-0.03,0.02-0.05,0.06-0.07,0.09
		c-0.01,0.01-0.03,0.05-0.04,0.08l0,0c-0.01,0.03-0.02,0.06-0.03,0.08c-0.04,0.03-0.07,0.08-0.09,0.13l-0.03,0.05l-0.01,0.02
		c-0.01,0.02-0.01,0.04-0.02,0.07c-0.04,0.03-0.06,0.07-0.08,0.11c0,0.01-0.01,0.03-0.02,0.05c-0.02,0.02-0.03,0.05-0.04,0.09
		l-0.01,0l-0.9,1.66l-3.37,6.25c-0.02,0.03-0.04,0.07-0.05,0.12l-0.02,0.01l-0.1,0.19l-0.01,0.02c-0.01,0.01-0.01,0.03-0.01,0.06
		c-0.04,0.03-0.06,0.07-0.08,0.11c-0.01,0.01-0.02,0.04-0.04,0.07l-0.01,0.02l-0.01,0.02c0,0.01-0.01,0.03-0.01,0.04
		c-0.03,0.02-0.05,0.05-0.07,0.08l-0.06,0.1l-0.01,0.02c-0.01,0.02-0.01,0.03-0.01,0.05l-0.02,0.01L7.8,21.21l0,0L7.7,21.4
		c-0.01,0.01-0.01,0.03-0.02,0.05l-0.02,0l-0.12,0.23l-0.01,0.03c0,0.01,0,0.01,0,0.02l-0.01,0.01l-0.13,0.25
		c-0.04,0.08-0.04,0.19,0.02,0.27c-0.02,0.04-0.05,0.08-0.07,0.12l-0.06-0.02c-0.06-0.03-0.14-0.03-0.2,0
		c-0.06,0.03-0.11,0.08-0.13,0.14c-0.01,0.03-0.08,0.15-0.15,0.27c-0.01,0-0.01,0-0.02,0c-0.08,0.02-0.14,0.07-0.17,0.15
		c-0.01,0.01-0.03,0.05-0.06,0.1c-0.05,0-0.1,0.01-0.15,0.04l-0.88-0.46c-0.03-0.02-0.12-0.06-0.23-0.02
		c-0.08,0.02-0.14,0.08-0.18,0.15l-0.25,0.47c-0.02,0.04-0.06,0.12-0.04,0.22c0.01,0.08,0.06,0.15,0.14,0.2l0.01,0l0.84,0.43
		c0.02,0.01,0.05,0.02,0.07,0.03c0.01,0.05,0.02,0.09,0.05,0.13l-0.05,0.09c-0.04,0.06-0.06,0.12-0.05,0.19
		c0,0.02,0.01,0.04,0.02,0.06l-0.15,0.27c-0.03,0.06-0.05,0.12-0.03,0.19c0.01,0.05,0.04,0.14,0.16,0.2c0.15,0.09,1.2,0.71,1.57,0.8
		l0.01,0c0.03,0.01,0.06,0.01,0.09,0.01c0.11,0,0.21-0.05,0.25-0.14c0.01-0.03,0.21-0.38,0.32-0.59c0.04,0,0.08-0.02,0.12-0.04
		l0.86,0.45c0.06,0.04,0.16,0.07,0.25,0.04c0.05-0.01,0.15-0.06,0.2-0.18l0.25-0.46c0.04-0.07,0.05-0.15,0.03-0.22
		c-0.02-0.07-0.07-0.16-0.21-0.22l-0.81-0.41l-0.02-0.02c-0.01-0.04-0.02-0.08-0.04-0.11l0.29-0.53c0.04-0.06,0.07-0.14,0.05-0.23
		c-0.01-0.05-0.04-0.13-0.14-0.2l0.08-0.14c0.09-0.01,0.16-0.06,0.19-0.12l0.08-0.15c0.02-0.03,0.04-0.07,0.04-0.11
		c0.02-0.02,0.04-0.04,0.06-0.07l0.05-0.09c0.02-0.03,0.03-0.06,0.03-0.1c0.02-0.02,0.05-0.05,0.07-0.09l0.04-0.07
		c0.02-0.03,0.04-0.07,0.04-0.11c0.03-0.03,0.06-0.06,0.08-0.1c0-0.01,0.02-0.04,0.04-0.07l0.01-0.02l0.01-0.02
		c0.01-0.02,0.01-0.04,0.01-0.05c0.02-0.02,0.04-0.04,0.06-0.07c0.01-0.02,0.05-0.09,0.05-0.09l0.01-0.02l0.01-0.02
		c0.01-0.02,0.01-0.04,0.01-0.06c0.03-0.02,0.05-0.05,0.06-0.08l0.05-0.1l0.01-0.01c0.01-0.02,0.02-0.05,0.02-0.08
		c0.02-0.02,0.04-0.05,0.06-0.08l0.05-0.08c0.02-0.03,0.03-0.07,0.04-0.1c0.02-0.02,0.04-0.04,0.05-0.06l0-0.01l4.24-7.86
		c0.02-0.03,0.03-0.06,0.03-0.09c0.02-0.02,0.04-0.03,0.05-0.05l0.01-0.01l0.05-0.1c0.02-0.03,0.03-0.06,0.03-0.1
		c0.03-0.02,0.05-0.06,0.07-0.1c0-0.01,0.02-0.04,0.04-0.07c0.02-0.03,0.03-0.06,0.03-0.09c0.03-0.02,0.05-0.05,0.07-0.09
		c0-0.01,0.02-0.04,0.04-0.07c0.02-0.03,0.04-0.07,0.04-0.11c0.03-0.02,0.05-0.06,0.07-0.1c0-0.01,0.02-0.04,0.04-0.07
		c0.02-0.03,0.03-0.06,0.03-0.09c0.03-0.02,0.05-0.05,0.07-0.09c0.01-0.01,0.02-0.04,0.04-0.07c0.02-0.03,0.04-0.07,0.04-0.11
		c0.02-0.02,0.04-0.04,0.05-0.06c0-0.01,0.02-0.02,0.06-0.11l0.01-0.02c0.01-0.02,0.02-0.04,0.02-0.08
		c0.03-0.02,0.05-0.05,0.06-0.09l0.1-0.18l0.01-0.04c0-0.01,0-0.02,0-0.03l0.69,0l0.69,0c0,0.01,0,0.02,0,0.03l0.01,0.04l0.1,0.18
		c0.01,0.03,0.04,0.06,0.06,0.09c0,0.03,0.01,0.06,0.02,0.08l0.01,0.02c0.05,0.09,0.06,0.11,0.06,0.11
		c0.01,0.02,0.03,0.04,0.05,0.06c0,0.04,0.02,0.08,0.04,0.11c0.02,0.03,0.03,0.06,0.04,0.07c0.02,0.03,0.04,0.06,0.07,0.09
		c0,0.03,0.02,0.07,0.03,0.09c0.02,0.03,0.04,0.06,0.04,0.07c0.02,0.04,0.04,0.07,0.07,0.1c0,0.04,0.02,0.08,0.04,0.11
		c0.02,0.03,0.03,0.06,0.04,0.07c0.02,0.03,0.04,0.06,0.07,0.09c0,0.03,0.01,0.06,0.03,0.09c0.02,0.03,0.04,0.06,0.04,0.07
		c0.02,0.04,0.05,0.08,0.07,0.1c0,0.04,0.02,0.07,0.03,0.1l0.05,0.1l0.01,0.01c0.01,0.02,0.03,0.04,0.05,0.05
		c0,0.03,0.02,0.07,0.03,0.09l4.24,7.85l0.01,0.01c0.02,0.02,0.03,0.04,0.05,0.06c0,0.04,0.02,0.07,0.04,0.1l0.04,0.08
		c0.02,0.03,0.04,0.06,0.06,0.08c0,0.03,0.01,0.06,0.02,0.08l0.06,0.11c0.02,0.03,0.04,0.06,0.06,0.08c0,0.02,0.01,0.04,0.01,0.06
		l0.01,0.02l0.01,0.02c0,0,0.04,0.07,0.05,0.09c0.02,0.03,0.04,0.05,0.06,0.07c0,0.02,0.01,0.04,0.01,0.05l0.01,0.02l0.01,0.02
		c0.01,0.02,0.03,0.06,0.04,0.07c0.02,0.04,0.04,0.08,0.08,0.1c0,0.05,0.02,0.08,0.04,0.12l0.04,0.06c0.02,0.04,0.04,0.07,0.07,0.09
		c0,0.04,0.01,0.07,0.03,0.1l0.05,0.09c0.01,0.03,0.03,0.05,0.06,0.07c0,0.04,0.02,0.08,0.04,0.11l0.08,0.14l0.01,0.01
		c0.04,0.06,0.1,0.11,0.19,0.12l0.08,0.14c-0.1,0.07-0.13,0.15-0.14,0.2c-0.02,0.09,0.01,0.18,0.05,0.23l0.29,0.53
		c-0.02,0.04-0.03,0.08-0.04,0.12l-0.83,0.43c-0.14,0.06-0.19,0.15-0.21,0.22c-0.02,0.08-0.01,0.16,0.03,0.22l0.25,0.46
		c0.06,0.12,0.15,0.17,0.2,0.18c0.1,0.03,0.19,0,0.25-0.04l0.85-0.44l0.02-0.01c0.04,0.02,0.08,0.03,0.12,0.03
		c0.11,0.21,0.31,0.56,0.32,0.59c0.06,0.11,0.19,0.16,0.34,0.13l0.01,0c0.37-0.09,1.42-0.71,1.57-0.8c0.11-0.06,0.15-0.15,0.16-0.2
		c0.01-0.07,0-0.13-0.03-0.19l-0.15-0.27c0.01-0.02,0.02-0.04,0.02-0.06c0.01-0.07,0-0.14-0.04-0.19l-0.05-0.09
		c0.03-0.04,0.04-0.08,0.05-0.13c0.02-0.01,0.04-0.02,0.07-0.03l0.83-0.43l0.02-0.01c0.07-0.05,0.12-0.12,0.14-0.2
		C27.54,23.32,27.51,23.24,27.48,23.2z M18.41,6.94L18.41,6.94c0.19,0,0.35,0.16,0.35,0.35c0,0.19-0.16,0.35-0.35,0.35
		c-0.19,0-0.35-0.16-0.35-0.35C18.07,7.09,18.22,6.94,18.41,6.94z M13.63,7.06c0.07-0.07,0.15-0.1,0.25-0.1
		c0.19,0,0.35,0.16,0.35,0.35c0,0.09-0.04,0.18-0.1,0.25c-0.07,0.07-0.15,0.1-0.25,0.1c-0.19,0-0.35-0.16-0.35-0.35
		C13.53,7.21,13.57,7.12,13.63,7.06z M9.17,22C9.17,22,9.17,22,9.17,22C9.17,22,9.17,22,9.17,22L9.17,22z M17.56,12.16l-0.11-0.03
		c0,0,0,0,0,0L17.56,12.16L17.56,12.16z M17.63,12.18L17.63,12.18l0.04,0.01L17.63,12.18z M23.16,22L23.16,22
		C23.16,22,23.16,22,23.16,22C23.16,22,23.16,22,23.16,22z M24.86,25.58C24.86,25.59,24.85,25.59,24.86,25.58l0.01,0L24.86,25.58z
		 M26.33,23.66L26.33,23.66c-0.01,0.01-0.01,0.01-0.02,0.01c-0.14,0.02-0.25,0.13-0.28,0.29l-0.19,0.1l0.16,0.3l-0.09,0.04l0.27,0.5
		c-0.4,0.23-0.98,0.55-1.25,0.66c-0.11-0.21-0.34-0.62-0.34-0.62l-0.13-0.25l-0.16,0.14c-0.11-0.05-0.26-0.04-0.39,0.07l-0.73,0.38
		l-0.13-0.24l0.71-0.36c0.14-0.04,0.27-0.14,0.29-0.3l0.18-0.09l-0.43-0.8c0.09-0.06,0.19-0.18,0.14-0.38l-0.01-0.03l-0.09-0.15l0,0
		l-0.23-0.46l-0.12,0.07c0-0.03-0.01-0.06-0.02-0.08c-0.03-0.06-0.07-0.1-0.12-0.14c0-0.11-0.05-0.2-0.14-0.26
		c0-0.09-0.05-0.2-0.14-0.26c0,0,0,0,0,0c0-0.09-0.04-0.2-0.14-0.26c0-0.1-0.05-0.2-0.15-0.26c0-0.09-0.04-0.19-0.14-0.27v0
		c0-0.05-0.01-0.1-0.04-0.15c-0.03-0.05-0.07-0.09-0.12-0.12l-4.18-7.75c0-0.09-0.04-0.19-0.15-0.27c0-0.1-0.05-0.19-0.14-0.26
		c0,0,0,0,0-0.01c0-0.1-0.05-0.2-0.14-0.26c0-0.11-0.05-0.21-0.14-0.27c0-0.09-0.05-0.19-0.15-0.26c0,0,0,0,0,0
		c0-0.1-0.05-0.2-0.14-0.26c0,0,0,0,0,0c0-0.08-0.04-0.18-0.13-0.25l0.06-0.05l-0.24-0.4l-1,0l-1,0l-0.25,0.4l0.06,0.05
		c-0.09,0.07-0.12,0.17-0.12,0.26c-0.09,0.06-0.14,0.16-0.14,0.26c0,0,0,0,0,0c-0.1,0.07-0.14,0.17-0.14,0.26
		c-0.09,0.06-0.14,0.16-0.14,0.27c-0.1,0.07-0.14,0.17-0.14,0.26c0,0,0,0,0,0.01c-0.09,0.06-0.13,0.15-0.14,0.26
		c-0.1,0.08-0.15,0.18-0.15,0.27l-4.18,7.75c-0.05,0.03-0.09,0.07-0.12,0.13c-0.02,0.05-0.03,0.1-0.04,0.15v0
		c-0.1,0.08-0.14,0.18-0.14,0.27c-0.1,0.07-0.14,0.17-0.15,0.26c-0.1,0.07-0.14,0.17-0.14,0.26v0c-0.09,0.07-0.14,0.17-0.14,0.26
		C9,22.1,8.95,22.2,8.95,22.31c-0.05,0.03-0.09,0.08-0.12,0.14c-0.01,0.03-0.02,0.05-0.02,0.08L8.7,22.46l-0.23,0.46h0l-0.09,0.15
		L8.37,23.1c-0.05,0.21,0.05,0.32,0.15,0.38l-0.43,0.8l0.18,0.09c0.02,0.16,0.15,0.26,0.29,0.3l0.71,0.36l-0.13,0.24L8.41,24.9
		c-0.13-0.11-0.28-0.11-0.39-0.06L7.86,24.7l-0.13,0.25c0,0-0.22,0.41-0.34,0.62c-0.27-0.1-0.85-0.42-1.25-0.65l0.27-0.5l-0.09-0.04
		l0.16-0.3l-0.19-0.1c-0.03-0.16-0.14-0.26-0.28-0.29c0,0,0,0-0.01,0L5.3,23.31l0.13-0.24l0.73,0.37c0.07,0.06,0.16,0.1,0.26,0.09
		c0.05,0,0.1-0.01,0.15-0.04l0.18,0.09l0.11-0.19c0.02-0.04,0.05-0.08,0.06-0.11l0.08,0.04l0.11-0.19c0.08-0.14,0.13-0.24,0.17-0.31
		c0.17,0.05,0.33-0.03,0.4-0.14l0-0.01c0.24-0.4,0.27-0.44,0.23-0.55l-0.03-0.08c0.07-0.07,0.1-0.15,0.11-0.23
		c0.04-0.03,0.07-0.06,0.09-0.1c0.03-0.05,0.05-0.11,0.05-0.17c0.05-0.04,0.09-0.08,0.11-0.12c0.03-0.05,0.04-0.1,0.04-0.15
		c0.1-0.07,0.14-0.17,0.14-0.26c0.1-0.07,0.14-0.18,0.15-0.27v0c0.1-0.07,0.14-0.17,0.14-0.26l0-0.01c0.1-0.07,0.14-0.17,0.14-0.27
		l3.36-6.24l0.82-1.51c0.1-0.06,0.14-0.17,0.15-0.26c0,0,0-0.01,0.01-0.01c0.09-0.06,0.14-0.16,0.14-0.26
		c0.06-0.04,0.1-0.09,0.12-0.16c0.01-0.04,0.02-0.07,0.02-0.11c0,0,0,0,0,0c0.05-0.04,0.09-0.09,0.12-0.14
		c0.01-0.03,0.02-0.07,0.02-0.1l0.01,0l0.17-0.29l0-0.01l0.1-0.16l0-0.03l0.03-0.04c0.04-0.06,0.09-0.12,0.13-0.19l0.06-0.09
		c0.04-0.02,0.07-0.04,0.1-0.07c0.09-0.08,0.13-0.19,0.13-0.31c0-0.01,0-0.01,0-0.01l0.04-0.07c0.05-0.1,0.09-0.17,0.1-0.2
		l0.07-0.15L14.42,9.7c-0.14-0.13-0.33-0.21-0.52-0.21c-0.16,0-0.32,0.05-0.44,0.14c0-0.4,0-1.1,0-1.66
		c0.12,0.08,0.27,0.12,0.42,0.12c0.21,0,0.41-0.08,0.56-0.23c0.15-0.15,0.23-0.35,0.23-0.56c0-0.16-0.05-0.31-0.13-0.44l0.55,0
		l0.06-0.05c0.44-0.36,1-0.35,1-0.35h0.01h0.01c0.01,0,0.56-0.02,1,0.35l0.06,0.05l0.52,0c-0.08,0.12-0.12,0.27-0.12,0.42
		c0,0.44,0.36,0.79,0.79,0.79c0.17,0,0.32-0.05,0.45-0.14c0,0.57,0,1.3,0,1.7c-0.13-0.1-0.29-0.15-0.46-0.15
		c-0.19,0-0.38,0.07-0.52,0.21l-0.12,0.11l0.07,0.15c0.01,0.03,0.05,0.1,0.1,0.2l0.05,0.1c0,0.15,0.09,0.28,0.21,0.35l0.07,0.1
		c0.05,0.07,0.09,0.13,0.13,0.19l0.05,0.07l0.07,0.12l0.03,0.05l0.17,0.29l0.01,0c0,0.03,0.01,0.07,0.02,0.1
		c0.02,0.06,0.06,0.11,0.12,0.14c0,0,0,0,0,0c0,0.04,0.01,0.07,0.02,0.11c0.02,0.07,0.07,0.12,0.13,0.16c0,0.1,0.05,0.19,0.14,0.26
		c0,0,0,0.01,0.01,0.01c0,0.1,0.05,0.2,0.15,0.26l0.82,1.51l3.37,6.24c0,0.09,0.04,0.2,0.14,0.27l0,0.01c0,0.09,0.04,0.19,0.14,0.26
		v0c0,0.09,0.04,0.2,0.15,0.27c0,0.09,0.05,0.19,0.14,0.26c0,0.05,0.01,0.1,0.04,0.15c0.02,0.04,0.05,0.08,0.11,0.12
		c0,0.06,0.02,0.12,0.05,0.17c0.02,0.04,0.06,0.07,0.09,0.1c0.01,0.08,0.04,0.16,0.11,0.23l-0.03,0.09
		c-0.04,0.11-0.01,0.15,0.23,0.55l0,0.01c0.07,0.12,0.23,0.19,0.4,0.14c0.04,0.07,0.09,0.17,0.17,0.31l0.11,0.19l0.08-0.04
		c0.02,0.03,0.04,0.07,0.06,0.11l0.11,0.19l0.18-0.09c0.04,0.02,0.1,0.03,0.15,0.04c0.1,0,0.19-0.03,0.26-0.09l0.73-0.38l0.13,0.24
		L26.33,23.66z"/>
	<path d="M24.3,10.98V6.39h-3.74v4.59l1.87-1.87L24.3,10.98z M21,6.83h2.86v3.09l-1.43-1.43L21,9.92V6.83z"/>
</g>
</svg>
