<?xml version="1.0" encoding="utf-8"?>
<!-- Generator: Adobe Illustrator 26.2.1, SVG Export Plug-In . SVG Version: 6.00 Build 0)  -->
<svg version="1.1" id="Layer_1" xmlns="http://www.w3.org/2000/svg" xmlns:xlink="http://www.w3.org/1999/xlink" x="0px" y="0px"
	 viewBox="0 0 32.25 32.25" style="enable-background:new 0 0 32.25 32.25;" xml:space="preserve">
<style type="text/css">
	.st0{fill:#1D1D1B;}
</style>
<g>
	<path class="st0" d="M15.76,18.86c-0.24,0-0.43,0.22-0.43,0.5v4.31c0,0.28,0.19,0.5,0.43,0.5s0.43-0.22,0.43-0.5v-4.31
		C16.19,19.07,16,18.86,15.76,18.86z"/>
	<path class="st0" d="M16.71,18.86c-0.24,0-0.43,0.22-0.43,0.5v4.31c0,0.28,0.19,0.5,0.43,0.5c0.24,0,0.43-0.22,0.43-0.5v-4.31
		C17.15,19.07,16.96,18.86,16.71,18.86z"/>
	<path class="st0" d="M17.67,18.86c-0.24,0-0.43,0.22-0.43,0.5v4.31c0,0.28,0.19,0.5,0.43,0.5s0.43-0.22,0.43-0.5v-4.31
		C18.1,19.07,17.91,18.86,17.67,18.86z"/>
	<path class="st0" d="M18.62,18.86c-0.24,0-0.43,0.22-0.43,0.5v4.31c0,0.28,0.19,0.5,0.43,0.5c0.24,0,0.43-0.22,0.43-0.5v-4.31
		C19.06,19.07,18.87,18.86,18.62,18.86z"/>
	<path class="st0" d="M19.58,18.86c-0.24,0-0.43,0.22-0.43,0.5v4.31c0,0.28,0.19,0.5,0.43,0.5s0.43-0.22,0.43-0.5v-4.31
		C20.01,19.07,19.82,18.86,19.58,18.86z"/>
	<path class="st0" d="M20.54,18.86c-0.24,0-0.43,0.22-0.43,0.5v4.31c0,0.28,0.19,0.5,0.43,0.5s0.43-0.22,0.43-0.5v-4.31
		C20.97,19.07,20.78,18.86,20.54,18.86z"/>
	<path class="st0" d="M21.49,18.86c-0.24,0-0.43,0.22-0.43,0.5v4.31c0,0.28,0.19,0.5,0.43,0.5s0.43-0.22,0.43-0.5v-4.31
		C21.93,19.07,21.73,18.86,21.49,18.86z"/>
	<path class="st0" d="M22.45,18.86c-0.24,0-0.43,0.22-0.43,0.5v4.31c0,0.28,0.19,0.5,0.43,0.5s0.43-0.22,0.43-0.5v-4.31
		C22.88,19.07,22.69,18.86,22.45,18.86z"/>
	<path class="st0" d="M23.4,18.86c-0.24,0-0.43,0.22-0.43,0.5v4.31c0,0.28,0.19,0.5,0.43,0.5c0.24,0,0.43-0.22,0.43-0.5v-4.31
		C23.84,19.07,23.65,18.86,23.4,18.86z"/>
	<path class="st0" d="M24.36,18.86c-0.24,0-0.43,0.22-0.43,0.5v4.31c0,0.28,0.19,0.5,0.43,0.5s0.43-0.22,0.43-0.5v-4.31
		C24.79,19.07,24.6,18.86,24.36,18.86z"/>
	<path class="st0" d="M25.31,18.86c-0.24,0-0.43,0.22-0.43,0.5v4.31c0,0.28,0.19,0.5,0.43,0.5s0.43-0.22,0.43-0.5v-4.31
		C25.75,19.07,25.56,18.86,25.31,18.86z"/>
	<path class="st0" d="M26.27,18.86c-0.24,0-0.43,0.22-0.43,0.5v4.31c0,0.28,0.19,0.5,0.43,0.5c0.24,0,0.43-0.22,0.43-0.5v-4.31
		C26.7,19.07,26.51,18.86,26.27,18.86z"/>
	<path class="st0" d="M27.23,18.86c-0.24,0-0.43,0.22-0.43,0.5v4.31c0,0.28,0.19,0.5,0.43,0.5c0.24,0,0.43-0.22,0.43-0.5v-4.31
		C27.66,19.07,27.47,18.86,27.23,18.86z"/>
	<path class="st0" d="M28.18,18.86c-0.24,0-0.43,0.22-0.43,0.5v4.31c0,0.28,0.19,0.5,0.43,0.5c0.24,0,0.43-0.22,0.43-0.5v-4.31
		C28.62,19.07,28.42,18.86,28.18,18.86z"/>
	<path class="st0" d="M14.87,18.78h-0.26c-0.19,0-0.36,0.13-0.4,0.31c-0.08,0.04-0.16,0.07-0.19,0.09c-0.04,0.02-0.15,0.08-0.3,0.38
		l-0.01,0.02c0,0.01-0.02,0.02-0.04,0.03l-0.6,0h-0.01c-0.05,0-0.09,0-0.12,0c-0.05-0.06-0.1-0.1-0.15-0.12l0-0.08
		c0.01-0.08,0.02-0.25-0.1-0.37c-0.03-0.03-0.06-0.05-0.09-0.06c0.41-0.77,0.22-1.45,0.19-1.56c-0.36-1.51-1.35-2.21-1.65-2.39
		c0.14-0.16,0.16-0.38,0.14-0.51c0.01-0.16-0.07-0.25-0.11-0.29c-0.08-0.07-0.17-0.08-0.25-0.08l-0.27,0l-0.1-1.82
		c0-0.05-0.02-0.1-0.04-0.15c0.02-0.05,0.03-0.11,0.02-0.16l-0.04-0.64c-0.01-0.18-0.14-0.3-0.27-0.34l-0.2-0.07c0,0,0-0.01,0-0.02
		l0.09-0.16c0,0,0,0,0,0l0.75,0c0.13,0,0.23-0.05,0.26-0.07l0.33-0.18c0.14-0.08,0.23-0.22,0.23-0.39l-0.01-0.7
		c0.01-0.16-0.09-0.28-0.2-0.33l-0.41-0.23l-0.01-0.66c0.02-0.24-0.16-0.39-0.34-0.42l-0.02,0h-0.47l0-0.24
		c0-0.11-0.05-0.21-0.14-0.28L10.01,7.1l0-0.1l0-0.02C9.98,6.81,9.84,6.69,9.67,6.7L6.35,6.71C6.19,6.7,6.1,6.78,6.06,6.82
		C6.01,6.88,5.99,6.96,6,7.04l0,0.07L5.91,7.3C5.81,7.39,5.77,7.5,5.77,7.59l0,0.24l-0.44,0c-0.25,0-0.38,0.2-0.38,0.39l0,0.7
		C4.81,9,4.67,9.08,4.63,9.1c-0.2,0.06-0.29,0.23-0.28,0.38l0,0.85l0.18,0.18l0.31,0.18c0.12,0.1,0.24,0.12,0.34,0.1l0.74-0.01
		c0,0,0.01,0,0.01,0.01L6,10.95c0,0.01,0.01,0.02,0.01,0.03C6,10.99,5.98,10.99,5.97,11l-0.01,0l-0.02,0
		c-0.36,0.1-0.41,0.28-0.4,0.39L5.5,12.04c0,0.05,0,0.1,0.02,0.14c-0.04,0.06-0.05,0.13-0.05,0.19l-0.09,1.78l-0.32,0
		c-0.09,0-0.18,0.04-0.24,0.11c-0.05,0.06-0.08,0.15-0.07,0.23l0.01,0.22l0,0.02c0.01,0.12,0.07,0.22,0.14,0.29
		c-1.22,0.8-1.55,1.98-1.59,2.15c-0.27,0.77-0.06,1.41,0.14,1.8c-0.1,0.05-0.16,0.14-0.19,0.24l-0.01,0.03l0,0.27
		c-0.14,0.07-0.21,0.22-0.22,0.36l-0.29,1.45c-0.03,0.11-0.04,0.2-0.04,0.27v0c0,0.07,0.01,0.12,0.02,0.15l0.55,2.34
		c0.01,0.13,0.07,0.21,0.12,0.26c0.08,0.07,0.17,0.09,0.23,0.09l0.05,0.18c0.08,0.44,0.54,0.53,0.79,0.52h1.56
		c0.27,0.32,0.6,0.41,0.8,0.41c0.02,0,0.03,0,0.04,0l2.36-0.01c0.43,0,0.71-0.27,0.82-0.41l1.67-0.01h0.02
		c0.42-0.03,0.6-0.31,0.61-0.34l0.02-0.03l0.09-0.34l0.79-0.01c0.13,0,0.23-0.03,0.3-0.09l0.51-0.33l0.28,0.14
		c0.04,0.04,0.09,0.07,0.14,0.08l0.36,0.11v-0.09h0.03c0.23,0,0.42-0.19,0.42-0.42V19.2C15.3,18.97,15.11,18.78,14.87,18.78z
		 M5.29,14.67l0.59-0.01l0.11-2.2c0.04-0.04,0.09-0.09,0.11-0.16c0.02-0.07,0.03-0.17-0.04-0.3l-0.04-0.07l0.02-0.42
		c0,0,0.01,0,0.01,0c0.08-0.01,0.28-0.07,0.4-0.25c0.06-0.1,0.11-0.26,0.04-0.48l-0.01-0.02l-0.12-0.24l-0.02-0.06l-0.07-0.04
		c0-0.01-0.01-0.01-0.02-0.03l-0.08-0.12l-1.03,0.01l-0.28-0.16l0-0.56c0.14-0.07,0.35-0.2,0.48-0.29l0.12-0.08l0-0.85l0.47,0
		c0.09,0,0.18-0.04,0.25-0.11c0.07-0.07,0.1-0.16,0.1-0.25l0-0.3l0.03-0.01l0.2-0.44l2.97,0l0.2,0.42l0.03,0.02l0,0.31
		c0,0.2,0.17,0.36,0.36,0.36h0.46l0.01,0.86l0.61,0.34l0.01,0.57l-0.29,0.15l0.01-0.01l-0.01,0.01c0,0-0.01,0-0.01,0l-0.88,0
		l-0.15,0l-0.07,0.13c0,0,0,0.01,0,0.01l-0.03,0.02l-0.17,0.32l-0.01,0.02c-0.08,0.2-0.05,0.49,0.21,0.65l0.03,0.02l0.21,0.08
		l0.03,0.44c-0.06,0.05-0.1,0.13-0.11,0.21c-0.01,0.12,0.04,0.23,0.14,0.31l0.12,2.19l0.6,0c-0.01,0.01-0.02,0.03-0.03,0.03
		l-0.02,0.01c-0.01,0-0.05,0.01-0.11,0.01l-4.78,0.02l-0.47,0c-0.02,0-0.06-0.01-0.07-0.04V14.67z M14.78,23.72h-0.11l-0.01-0.01
		l-0.34-0.17c-0.1-0.07-0.28-0.12-0.5-0.01l-0.56,0.36c-0.01,0-0.01,0-0.02,0l-1.18,0.02l-0.16,0.63c-0.03,0.02-0.08,0.06-0.18,0.07
		l-1.66,0.01c-0.14-0.02-0.3,0.03-0.38,0.17c-0.02,0.03-0.18,0.24-0.43,0.24l-2.37,0.01l-0.03,0c0,0-0.22,0.01-0.41-0.23
		c-0.06-0.1-0.17-0.18-0.34-0.18H4.47H4.47H4.46c0,0-0.25,0-0.26-0.09l0-0.02l-0.16-0.59l-0.25,0l-0.54-2.3l0.01,0.01l-0.01-0.02
		c0-0.02,0-0.07,0.02-0.15l0-0.01l0.29-1.46l0.33,0l0.05-0.53l0.56-0.01l-0.37-0.42C4.1,19,3.48,18.29,3.83,17.34l0.01-0.02l0-0.02
		c0-0.01,0.26-1.13,1.37-1.85l5.67-0.01c0.09,0.06,0.31,0.2,0.55,0.45c0.43,0.44,0.72,0.99,0.87,1.63l0.01,0.03
		c0,0.01,0.25,0.73-0.35,1.47l-0.34,0.42l0.54,0.01h0l0.01,0.53l0.4,0l0.02,0.04l0.06,0.04c0.07,0.05,0.17,0.08,0.45,0.07l0.68,0.01
		l0.04-0.01c0.03-0.01,0.29-0.1,0.39-0.34c0.03-0.05,0.06-0.11,0.08-0.14c0.05-0.03,0.15-0.07,0.29-0.13l0.15-0.07V19.3h0.07V23.72z
		"/>
	<path class="st0" d="M29.09,19.97c-0.24,0-0.43,0.22-0.43,0.5v2.07c0,0.28,0.19,0.5,0.43,0.5s0.43-0.22,0.43-0.5v-2.07
		C29.52,20.19,29.33,19.97,29.09,19.97z"/>
</g>
</svg>
