<?xml version="1.0" encoding="utf-8"?>
<!-- Generator: Adobe Illustrator 26.2.1, SVG Export Plug-In . SVG Version: 6.00 Build 0)  -->
<svg version="1.1" id="Layer_1" xmlns="http://www.w3.org/2000/svg" xmlns:xlink="http://www.w3.org/1999/xlink" x="0px" y="0px"
	 viewBox="0 0 32.25 32.25" style="enable-background:new 0 0 32.25 32.25;" xml:space="preserve">
<g>
	<path d="M7.47,17.65c-0.07,0-0.13,0.01-0.2,0.03c-0.13,0.04-0.27,0.09-0.4,0.13c-0.23,0.08-0.47,0.16-0.71,0.23
		c-0.29,0.08-0.46,0.19-0.57,0.37v0.28C5.78,19,5.89,19.02,6,19.02c0.1,0,0.22-0.03,0.39-0.08l0.11-0.04
		c0.34-0.11,0.7-0.22,1.04-0.34c0.3-0.1,0.44-0.34,0.36-0.6C7.84,17.76,7.68,17.65,7.47,17.65z"/>
	<path d="M22.81,11.86c-0.97-0.16-1.95-0.3-2.91-0.43c-0.17-0.02-0.33-0.05-0.5-0.07c-0.17-0.02-0.37-0.08-0.5-0.35
		c-0.43-0.89-0.94-1.94-1.46-2.96c-0.12-0.24-0.25-0.42-0.39-0.54c-0.26-0.23-0.58-0.35-0.92-0.35c-0.54,0-1.04,0.31-1.29,0.82
		c-0.24,0.48-0.48,0.97-0.72,1.45c-0.26,0.53-0.53,1.07-0.8,1.6c-0.07,0.14-0.23,0.29-0.42,0.32c-1.02,0.16-2.05,0.3-3.02,0.44
		l-0.02,0c-0.39,0.06-0.77,0.11-1.06,0.34c-0.33,0.27-0.52,0.64-0.54,1.04c-0.02,0.42,0.14,0.82,0.46,1.13
		c0.79,0.78,1.6,1.56,2.38,2.32l0.05,0.05c0.1,0.1,0.21,0.25,0.17,0.5c-0.11,0.63-0.22,1.26-0.33,1.88
		c-0.07,0.42-0.15,0.86-0.22,1.29c-0.06,0.35-0.09,0.71,0.07,1.06c0.24,0.5,0.75,0.83,1.3,0.83c0.25,0,0.51-0.07,0.75-0.2
		c0.5-0.28,1.02-0.55,1.52-0.81c0.44-0.23,0.9-0.47,1.34-0.71c0.12-0.07,0.24-0.1,0.35-0.1c0.16,0,0.29,0.06,0.37,0.11
		c1.13,0.6,2.06,1.09,2.94,1.55c0.23,0.12,0.46,0.18,0.68,0.18c0.29,0,0.57-0.1,0.84-0.31c0.46-0.35,0.63-0.81,0.53-1.41
		c-0.05-0.28-0.1-0.57-0.14-0.85c-0.14-0.81-0.28-1.64-0.42-2.46c-0.04-0.23,0.02-0.41,0.19-0.58c0.5-0.48,1-0.98,1.49-1.45
		c0.3-0.29,0.59-0.58,0.89-0.87c0.32-0.31,0.47-0.65,0.47-1.04v0C23.97,12.54,23.5,11.97,22.81,11.86z M22.78,13.71
		c-0.92,0.91-1.76,1.73-2.62,2.55c-0.22,0.21-0.29,0.42-0.23,0.75c0.23,1.24,0.43,2.47,0.62,3.63c0.03,0.16-0.02,0.45-0.2,0.57
		c-0.07,0.04-0.15,0.07-0.25,0.07c-0.11,0-0.24-0.03-0.34-0.08c-0.63-0.33-1.27-0.66-1.89-0.99c-0.45-0.24-0.91-0.48-1.37-0.72
		c-0.09-0.05-0.2-0.09-0.31-0.13c-0.03-0.01-0.05-0.02-0.08-0.03c-0.02,0.01-0.04,0.01-0.06,0.02c-0.1,0.04-0.18,0.07-0.26,0.11
		c-0.87,0.45-1.74,0.91-2.59,1.36l-0.7,0.37c-0.01,0.01-0.02,0.01-0.03,0.02c-0.08,0.04-0.2,0.11-0.33,0.11
		c-0.12,0-0.24-0.05-0.32-0.15c-0.13-0.15-0.16-0.38-0.13-0.55c0.22-1.38,0.46-2.74,0.64-3.78c0.03-0.19-0.02-0.34-0.17-0.49
		c-0.64-0.62-1.28-1.25-1.92-1.87l-0.69-0.67c-0.01-0.01-0.02-0.02-0.04-0.03c-0.05-0.04-0.11-0.1-0.16-0.18l-0.01-0.02
		c-0.06-0.11-0.16-0.29-0.1-0.46c0.06-0.18,0.27-0.31,0.43-0.34c0.24-0.04,0.47-0.08,0.7-0.11c0.1-0.01,0.2-0.03,0.3-0.04
		c0.3-0.04,0.6-0.09,0.9-0.13c0.63-0.09,1.28-0.19,1.93-0.28c0.21-0.03,0.34-0.13,0.44-0.34c0.4-0.81,0.81-1.64,1.2-2.44
		c0.14-0.29,0.29-0.59,0.44-0.88l0,0c0.01-0.03,0.03-0.08,0.08-0.13c0.02-0.02,0.04-0.04,0.06-0.06c0.08-0.1,0.2-0.23,0.37-0.23
		c0,0,0.01,0,0.01,0c0.22,0,0.41,0.22,0.48,0.35c0.12,0.21,0.22,0.42,0.32,0.63c0.03,0.07,0.07,0.14,0.1,0.21
		c0.11,0.21,0.21,0.43,0.32,0.64c0.31,0.63,0.63,1.27,0.94,1.91c0.11,0.22,0.24,0.32,0.47,0.35c0.92,0.13,1.85,0.26,2.75,0.4
		c0.32,0.05,0.63,0.09,0.95,0.14l0.03,0c0.14,0.02,0.49,0.07,0.52,0.43C23.03,13.38,22.9,13.58,22.78,13.71z"/>
	<path d="M26.36,18.14c-0.43-0.15-0.86-0.29-1.29-0.42l-0.1-0.03c-0.07-0.02-0.14-0.03-0.2-0.03c-0.21,0-0.37,0.12-0.43,0.32
		c-0.09,0.26,0.06,0.5,0.36,0.6c0.13,0.04,0.25,0.08,0.37,0.12c0.29,0.09,0.59,0.19,0.88,0.28c0.06,0.02,0.14,0.03,0.19,0.04
		c0.01,0,0.02,0,0.02,0c0.26-0.01,0.45-0.15,0.49-0.36C26.7,18.43,26.58,18.21,26.36,18.14z"/>
	<path d="M9.95,7.82l0.1,0.13c0.1,0.13,0.22,0.2,0.37,0.2h0.01c0.18,0,0.31-0.07,0.4-0.23c0.1-0.17,0.09-0.33-0.01-0.48
		c-0.26-0.37-0.56-0.8-0.88-1.22C9.84,6.1,9.71,6.04,9.57,6.04c-0.1,0-0.19,0.03-0.27,0.09c-0.21,0.16-0.26,0.43-0.1,0.65
		C9.44,7.13,9.7,7.48,9.95,7.82z"/>
	<path d="M21.42,7.46C21.33,7.6,21.33,7.76,21.4,7.9c0.08,0.15,0.24,0.25,0.41,0.25h0.01c0.16,0,0.27-0.05,0.35-0.16
		c0.31-0.42,0.62-0.83,0.91-1.25c0.14-0.2,0.08-0.46-0.13-0.61c-0.08-0.06-0.18-0.09-0.28-0.09h-0.01c-0.13,0-0.25,0.06-0.32,0.16
		C21.96,6.68,21.66,7.09,21.42,7.46z"/>
	<path d="M16.58,25.67c0.01-0.49,0.01-1,0-1.51c0-0.25-0.21-0.44-0.46-0.44h0c-0.25,0-0.45,0.2-0.46,0.45c0,0.16,0,0.32,0,0.47h0
		v0.26c0,0.08,0,0.16,0,0.24c0,0.17,0,0.35,0,0.53c0.01,0.24,0.2,0.43,0.45,0.43h0C16.38,26.1,16.58,25.92,16.58,25.67z"/>
</g>
</svg>
