<svg width="26" height="30" viewBox="0 0 26 30" fill="none" xmlns="http://www.w3.org/2000/svg">
<path d="M21.7657 3.73441C24.1065 6.07493 25.4453 9.23408 25.499 12.5438C25.5527 15.8536 24.317 19.0545 22.0533 21.4697L21.7657 21.7672L15.7548 27.7767C14.9921 28.5389 13.9682 28.9827 12.8905 29.0182C11.8129 29.0537 10.762 28.6783 9.95075 27.9679L9.74675 27.7767L3.73441 21.7657C1.34331 19.3746 0 16.1316 0 12.7501C0 9.36855 1.34331 6.12551 3.73441 3.73441C6.12552 1.34331 9.36855 0 12.7501 0C16.1316 0 19.3746 1.34331 21.7657 3.73441ZM12.7501 8.50008C12.192 8.50008 11.6393 8.61001 11.1237 8.82359C10.608 9.03717 10.1395 9.35022 9.74487 9.74487C9.35023 10.1395 9.03717 10.608 8.82359 11.1237C8.61001 11.6393 8.50008 12.192 8.50008 12.7501C8.50008 13.3082 8.61001 13.8608 8.82359 14.3765C9.03717 14.8921 9.35023 15.3606 9.74487 15.7553C10.1395 16.1499 10.608 16.463 11.1237 16.6766C11.6393 16.8901 12.192 17.0001 12.7501 17.0001C13.8772 17.0001 14.9583 16.5523 15.7553 15.7553C16.5523 14.9583 17.0001 13.8772 17.0001 12.7501C17.0001 11.6229 16.5523 10.5419 15.7553 9.74487C14.9583 8.94784 13.8772 8.50008 12.7501 8.50008Z" fill="#00205B"/>
</svg>
