<svg width="25" height="25" viewBox="0 0 25 25" fill="none" xmlns="http://www.w3.org/2000/svg">
<path d="M18.75 1.67487C20.6353 2.76343 22.2037 4.32552 23.2998 6.20649C24.3959 8.08746 24.9817 10.2221 24.9993 12.399C25.0169 14.576 24.4656 16.7198 23.4 18.6182C22.3345 20.5167 20.7916 22.1039 18.9241 23.2228C17.0566 24.3416 14.9292 24.9534 12.7526 24.9974C10.576 25.0415 8.42569 24.5163 6.51444 23.4739C4.6032 22.4315 2.99734 20.908 1.85583 19.0543C0.714328 17.2005 0.0767616 15.0808 0.00625014 12.9049L0 12.4999L0.00625014 12.0949C0.076254 9.9361 0.704435 7.83232 1.82955 5.98861C2.95466 4.1449 4.53832 2.62418 6.42612 1.57472C8.31391 0.525257 10.4414 -0.0171385 12.6013 0.000412807C14.7611 0.0179641 16.8795 0.594863 18.75 1.67487ZM17.1337 9.11612C16.9185 8.9009 16.6321 8.77161 16.3284 8.75251C16.0246 8.7334 15.7243 8.8258 15.4838 9.01237L15.3663 9.11612L11.25 13.2311L9.63375 11.6161L9.51625 11.5124C9.27573 11.3259 8.97546 11.2336 8.67176 11.2528C8.36805 11.272 8.08176 11.4013 7.86658 11.6164C7.6514 11.8316 7.5221 12.1179 7.50294 12.4216C7.48378 12.7253 7.57607 13.0256 7.7625 13.2661L7.86625 13.3836L10.3663 15.8836L10.4838 15.9874C10.703 16.1574 10.9725 16.2498 11.25 16.2498C11.5275 16.2498 11.797 16.1574 12.0162 15.9874L12.1337 15.8836L17.1337 10.8836L17.2375 10.7661C17.4241 10.5256 17.5165 10.2253 17.4974 9.92151C17.4783 9.61773 17.349 9.33136 17.1337 9.11612Z" fill="#069139"/>
</svg>
